<?xml version="1.0" encoding="utf-8"?>
<!-- Generator: Adobe Illustrator 24.3.0, SVG Export Plug-In . SVG Version: 6.00 Build 0)  -->
<svg version="1.1" id="Layer_1" xmlns="http://www.w3.org/2000/svg" xmlns:xlink="http://www.w3.org/1999/xlink" x="0px" y="0px"
	 viewBox="0 0 841.89 595.276" style="enable-background:new 0 0 841.89 595.276;" xml:space="preserve">
<style type="text/css">
	.st0{fill:#807F78;}
	.st1{fill:#9C9A93;}
	.st2{fill:#D6D2C6;}
	.st3{fill:#110F0D;}
	.st4{fill:#131624;}
	.st5{fill:#14192C;}
	.st6{fill:#0F0F0E;}
	.st7{fill:#EEC22E;}
	.st8{fill:#DA3630;}
	.st9{fill:#DB3531;}
	.st10{fill:#D5D1C5;}
	.st11{fill:#57554F;}
	.st12{fill:#9C9A92;}
	.st13{fill:#D63530;}
	.st14{fill:#5A5852;}
	.st15{fill:#5B5953;}
	.st16{fill:#151A2B;}
	.st17{fill:#CAC7BB;}
	.st18{fill:#E0DBCD;}
	.st19{fill:#CBC8BC;}
	.st20{fill:#5D5A54;}
	.st21{fill:#CCC8BD;}
	.st22{fill:#D8332F;}
	.st23{fill:#55544D;}
	.st24{fill:#97958E;}
	.st25{fill:#585650;}
	.st26{fill:#98978F;}
	.st27{fill:#797872;}
	.st28{fill:#A4A19B;}
	.st29{fill:#D93530;}
	.st30{fill:#CECABE;}
	.st31{fill:#939088;}
	.st32{fill:#F0ECDD;}
	.st33{fill:#7F7D77;}
	.st34{fill:#BAB6AC;}
	.st35{fill:#99988F;}
	.st36{fill:#86847D;}
	.st37{fill:#9F9D96;}
	.st38{fill:#CECABF;}
	.st39{fill:#CF3831;}
	.st40{fill:#A3A098;}
	.st41{fill:#7D7D76;}
	.st42{fill:#C0BCB4;}
	.st43{fill:#A3A19A;}
	.st44{fill:#797870;}
	.st45{fill:#7A7A75;}
	.st46{fill:#999790;}
	.st47{fill:#D3332F;}
	.st48{fill:#6F6C64;}
	.st49{fill:#76756D;}
	.st50{fill:#ACA89F;}
	.st51{fill:#78766F;}
	.st52{fill:#D0322B;}
	.st53{fill:#DEDAC8;}
	.st54{fill:#64625B;}
	.st55{fill:#7C7A73;}
	.st56{fill:#6C6C62;}
	.st57{fill:#E8E5D8;}
	.st58{fill:#D13634;}
	.st59{fill:#181B29;}
	.st60{fill:#181C2B;}
	.st61{fill:#181715;}
	.st62{fill:#A7A59C;}
	.st63{fill:#1D1C19;}
	.st64{fill:#13120F;}
	.st65{fill:#181815;}
	.st66{fill:#131210;}
	.st67{fill:#181814;}
	.st68{fill:#1F1E1B;}
	.st69{fill:#21201B;}
	.st70{fill:#302F29;}
	.st71{fill:#2E170E;}
	.st72{fill:#2D150E;}
	.st73{fill:#D73730;}
	.st74{fill:#D8352F;}
	.st75{fill:#D6362F;}
	.st76{fill:#D6342F;}
	.st77{fill:#DA382F;}
	.st78{fill:#D7352F;}
	.st79{fill:#D6322E;}
	.st80{fill:#EABF30;}
	.st81{fill:#E9BC2F;}
	.st82{fill:#E7D0A6;}
	.st83{fill:#E2C29E;}
	.st84{fill:#E6CCA7;}
	.st85{fill:#E9D2AC;}
	.st86{fill:#E7CFA8;}
	.st87{fill:#E4CBA3;}
	.st88{fill:#E2C69A;}
	.st89{fill:#E1C7A6;}
	.st90{fill:#D38971;}
	.st91{fill:#E8C5A5;}
	.st92{fill:#E3C6A9;}
	.st93{fill:#D8342F;}
	.st94{fill:#D9372F;}
	.st95{fill:#E3C8A4;}
	.st96{fill:#EBD1AB;}
	.st97{fill:#DFB832;}
	.st98{fill:#E7D1B0;}
	.st99{fill:#DBB82E;}
	.st100{fill:#C69779;}
	.st101{fill:#C7896C;}
	.st102{fill:#E6C5A8;}
	.st103{fill:#BB9476;}
	.st104{fill:#E5C29E;}
	.st105{fill:#A29E96;}
	.st106{fill:#22232D;}
	.st107{fill:#EDD0A2;}
	.st108{fill:#1D1C28;}
	.st109{fill:#E1C094;}
	.st110{fill:#1B1C2B;}
	.st111{fill:#DBBD90;}
	.st112{fill:#261F29;}
	.st113{fill:#E7B8A8;}
	.st114{fill:#1C1F2C;}
	.st115{fill:#E2CF9D;}
	.st116{fill:#1E202E;}
	.st117{fill:#E3CDA3;}
	.st118{fill:#DFBE37;}
	.st119{fill:#DDBD30;}
	.st120{fill:#DFBE36;}
</style>
<g>
	<path class="st0" d="M307.607,294.876c-0.063,14.319,8.569,22.245,20.452,27.689c4.025,1.844,8.186,3.391,12.285,5.073
		c0.098,1.843-0.149,2.807-2.507,1.975c-8.278-2.921-16.664-5.596-23.578-11.302c-3.644-3.007-6.456-6.653-7.162-11.524
		c-0.294-2.033-1.303-2.021-2.905-0.792C304.128,301.654,305.401,298.124,307.607,294.876z"/>
	<path class="st1" d="M308.008,294.509c1.897-3.795,4.731-6.868,7.969-9.467c10.321-8.285,20.761-16.423,31.478-24.194
		c0.779-0.565,1.643-1.01,2.456-1.529c6.135-3.916,12.244-3.771,18.585-0.304c7.808,4.269,15.02,9.468,22.602,14.081
		c0.827,0.503,1.286,0.886,0.682,2.007c-6.564,12.181-7.795,25.154-5.089,38.512c1.363,6.727,0.42,13.064-1.866,19.299
		c-3.712,10.123-6.753,20.351-6.521,31.294c0.06,2.815,0.22,5.602,0.799,8.359c0.066,2.237-1.709,2.004-3.026,2.1
		c-3.546,0.256-7.104,0.201-10.662,0.402c-8.348,0.472-16.709,0.736-25.057,1.256c-0.481,0.03-0.956-0.093-1.409-0.251
		c-1.379-0.602-1.334-1.784-1.067-2.944c0.699-3.04,2.037-5.813,3.747-8.407c0.816-1.238,2.051-1.69,3.47-1.751
		c8.323-0.357,13.432-5.448,17.578-11.957c4.788-7.445,6.416-15.207,2.425-23.566c-1.633-3.42-4.811-5.484-7.136-8.293
		c-0.174-0.347-0.393-0.74-0.278-1.097c1.646-5.117,2.377-10.484,4.208-15.546c0.538-1.487,1.551-2.646,3.117-3.196
		c1.53-0.325,3.308,0.421,4.84-1.306c-2.43-0.462-4.662-0.887-7.526-1.431c2.752-1.443,4.948-2.521,7.064-3.739
		c0.9-0.518,1.758-1.346-0.227-1.608c-5.493,0.063-10.52,2.056-15.6,3.808c-2.278,0.786-4.548,1.593-6.85,2.307
		c-2.674,0.829-5.312,0.717-7.911-0.321c-2.497-1.146-5.005-2.248-8.2-2.13c0.68,1.176,1.572,1.272,2.301,1.592
		c3.332,1.462,6.26,3.503,8.477,6.394c3.175,4.141,5.986,8.557,9.467,12.468c1.281,1.44,0.619,1.862-1.014,2.023
		c-3.992,0.391-4.52,0.95-4.639,5.045c-0.034,1.173-0.259,1.719-1.469,1.97c-1.521,0.316-2.445,1.446-2.98,2.884
		c-1.177,0.732-2.243,0.089-3.295-0.317c-4.581-1.769-9.096-3.702-13.453-5.967c-6.052-3.146-10.809-7.73-14.08-13.699
		C307.752,303.333,306.644,299.067,308.008,294.509z"/>
	<path class="st2" d="M380.345,372.45c-2.133-14.758,2.107-28.566,6.483-42.304c1.885-5.919,1.563-11.755,0.81-17.741
		c-1.52-12.082-0.735-23.922,4.176-35.271c0.79-1.825,1.258-2.518,3.413-1.134c10.642,6.835,21.849,12.662,33.296,18.038
		c2.211,1.038,3.759,0.618,5.395-1.052c7.027-7.169,11.35-15.728,13.293-25.582c1.473,0.218,2.161,1.357,2.945,2.268
		c9.018,10.475,14.17,22.46,14.095,36.466c-0.012,2.276,0.943,4.306,1.758,6.357c5.228,13.16,9.241,26.608,10.363,40.832
		c0.669,8.483-0.177,16.765-2.246,24.969c-1.012,1.128-2.327,0.77-3.538,0.639c-11.333-1.228-22.695-2.129-34.07-2.8
		c-4.625-0.273-9.253-0.571-13.884-0.776c-12.651-0.56-25.306-0.615-37.965-0.593C382.884,374.769,380.838,374.987,380.345,372.45z"
		/>
	<path class="st3" d="M246.05,387.809c-8.731-13.335-15.343-27.712-19.486-43.046c-16.304-60.343-3.958-114.381,37.552-161.02
		c26.617-29.906,60.592-47.358,100.079-53.636c22.984-3.654,45.854-2.498,68.367,3.753c1.189,0.33,2.176,0.148,3.317-0.356
		c4.605-2.031,7.901-0.983,10.156,3.408c0.87,1.695,2.354,1.85,3.716,2.374c42.322,16.288,73.516,44.872,93.354,85.581
		c13.735,28.185,18.742,58.081,15.579,89.348c-2.63,26.007-10.987,50.017-24.521,72.292c-0.199,0.327-0.451,0.621-0.679,0.931
		c-0.215,0.787-0.659,1.354-1.456,1.642c-2.193,0.792-7.701-1.09-9.258-3.176c-0.12-1.268,0.649-2.191,1.266-3.161
		c13.221-20.783,21.121-43.422,23.87-67.91c2.898-25.811-0.379-50.811-9.712-74.996c-7.049-18.267-17.436-34.455-30.559-49.001
		c-15.246-16.9-33.449-29.499-54.167-38.637c-3.546-1.564-3.815-1.366-4.433,2.351c-0.88,5.295-2.458,10.381-5.276,14.979
		c-1.232,2.01-0.932,3.389,0.633,5.109c4.771,5.246,9.723,10.218,15.859,13.915c4.391,2.645,9.045,4.346,14.132,4.931
		c1.304,0.15,3.064,0.002,3.428,1.604c0.412,1.812-1.227,2.603-2.26,3.395c3.175,0.073,3.732,0.888,2.424,4.302
		c-5.412,14.125-14.494,25.482-26.297,34.77c-1.065,0.838-2.161,1.636-3.247,2.447c-3.826,2.859-3.39,6.965,1.015,8.973
		c6.152,2.805,11.535,6.67,16.292,11.458c4.501,4.531,8.94,9.12,13.94,13.135c1.874,1.505,3.284,1.543,5.037-0.048
		c1.939-1.758,3.919-3.438,5.381-5.657c1.452-2.204,2.136-4.354,1.199-7.077c-0.974-2.83-0.532-5.839,0.751-8.509
		c3.046-6.342,2.517-12.35-1.196-18.199c-0.155-0.244-0.257-0.521-0.375-0.786c-2.302-5.147-1.386-9.588,2.439-11.829
		c4.54-2.66,10.344-1.534,13.468,2.782c2.813,3.886,3.422,8.349,2.86,13.015c-0.331,2.742-0.355,2.751,2.351,1.881
		c4.448-1.431,8.888-1.76,13.37-0.108c4.645,1.713,6.857,4.874,6.46,9.792c-0.155,1.924,0.09,3.567,1.103,5.235
		c1.432,2.359,1.63,4.923,0.588,7.538c-0.504,1.264-0.926,2.541-0.722,3.951c0.812,5.635-1.948,9.486-6.392,12.352
		c-3.294,2.124-6.961,3.487-10.872,3.781c-2.688,0.202-3.555,1.495-3.904,3.987c-1.094,7.807-2.851,15.437-7.172,22.217
		c-2.266,3.556-4.929,6.905-8.64,8.849c-5.022,2.632-10.276,5.281-16.427,1.902c-0.033,1.417,0.479,2.235,0.831,3.055
		c6.034,14.056,8.513,28.748,7.524,43.974c-0.322,4.964-0.625,10.051-3.237,14.565c-1.365,0.6-2.577,0.458-3.574-0.73
		c-0.7-1.636-0.164-3.262,0.164-4.844c3.008-14.512,1.301-28.708-2.892-42.712c-1.86-6.213-4.094-12.302-6.684-18.262
		c-1.817-4.18-3.187-8.512-3.671-13.093c-1.245-11.775-5.501-22.296-13.148-31.396c-0.931-1.107-1.896-2.233-2.499-3.556
		c-0.762-1.672-0.536-2.731,1.682-2.061c10.401,8.36,16.605,19.076,18.28,32.398c0.634,5.044,0.774,10.198,3.529,14.798
		c2.316,3.867,8.862,5.813,12.755,3.514c0.418-0.247,0.829-0.589,1.305-0.597c5.398-0.095,7.718-4.33,10.178-7.984
		c3.62-5.375,4.896-11.715,6.33-17.942c0.617-2.68-1.504-2.055-2.82-2.419c-2.549-0.876-4.944-2.12-7.574-2.839
		c-2.46-0.672-3.245-3.238-4.503-5.108c-1.232-1.831-2.026-1.667-3.528-0.399c-3.764,3.176-7.856,5.986-10.487,10.323
		c-0.412,0.678-1.027,1.665-2.022,1.116c-0.853-0.471-0.752-1.519-0.549-2.378c0.524-2.217,1.77-4.07,3.139-5.832
		c1.058-1.361,0.936-2.403-0.551-3.346c-5.939-3.767-10.413-9.213-15.601-13.837c-4.356-3.883-8.766-7.583-14.386-10.651
		c1.711,3.494,1.641,6.888,1.519,10.26c-0.092,2.55,1.431,4.08,3.031,5.663c8.044,7.952,12.684,17.651,14.671,28.711
		c0.432,2.404,0.552,4.858,0.252,7.231c-0.478,3.783,0.838,6.997,2.348,10.276c6.763,14.688,10.705,30.038,10.465,46.305
		c-0.073,4.938-0.789,9.83-1.845,14.659c-0.289,1.321-0.679,2.64-1.917,3.463c-0.471,0.147-0.912,0.099-1.319-0.193
		c-0.659-0.861-0.56-1.834-0.333-2.782c3.749-15.666,1.383-30.945-2.841-46.123c-1.378-4.953-2.94-9.858-5.046-14.524
		c-2.044-4.529-2.686-9.223-2.966-14.071c-0.673-11.618-5.89-21.292-13.018-30.123c-0.469-0.581-1.013-1.419-1.85-1.141
		c-0.804,0.266-0.749,1.275-0.955,2.002c-2.013,7.08-5.32,13.473-10.017,19.152c-4.236,5.122-5.839,5.536-11.911,2.633
		c-9.867-4.717-19.522-9.827-28.813-15.615c-2.83-1.763-3.175-1.672-4.465,1.32c-2.286,5.302-3.221,10.937-3.77,16.636
		c-0.708,7.359-0.089,14.678,0.942,21.963c0.789,5.574-0.828,10.757-2.42,15.934c-2.562,8.335-4.979,16.688-5.806,25.425
		c-0.266,2.813-0.402,5.589,0.039,8.386c0.273,1.726,0.387,3.463,0.043,5.202c-0.854,1.875-1.82,1.544-2.843,0.148
		c-1.819-4.983-1.217-10.153-0.861-15.229c0.539-7.672,2.668-15.026,5.374-22.211c2.949-7.829,4.182-15.702,2.383-24.142
		c-2.539-11.914-0.518-23.482,4.43-34.529c0.835-1.864,0.71-3.014-1.077-4.079c-6.726-4.006-13.112-8.547-19.942-12.408
		c-6.884-3.892-13.312-3.774-19.859,0.659c-3.289,2.227-6.513,4.522-9.589,7.023c-7.205,5.858-14.811,11.193-22.027,17.038
		c-3.431,2.779-6.197,6.083-8.547,9.775c-1.454,2.201-2.38,4.634-3.064,7.164c-0.195,0.722-0.56,1.725,0.387,2.046
		c1.953,0.663,2.069,2.343,2.535,3.897c1.175,3.922,3.512,7.069,6.646,9.63c5.716,4.671,12.508,7.205,19.33,9.68
		c1.774,0.644,3.743,0.89,5.213,2.164c0.066-0.588-0.068-1.387,0.223-2.135c0.255-0.742,0.58-1.532,1.205-1.947
		c2.122-1.408,3.234-3.284,3.652-5.83c0.268-1.629,1.792-2.465,3.414-2.751c1.535-0.271,1.818-0.902,0.754-2.068
		c-3.072-3.368-5.433-7.271-8.181-10.884c-1.978-2.6-4.525-4.459-7.443-5.857c-0.783-0.375-1.568-0.758-2.241-1.322
		c-0.458-0.385-0.875-0.853-0.692-1.483c0.229-0.788,0.939-0.912,1.64-0.887c2.486,0.089,4.672,1.108,6.822,2.237
		c0.76,0.417,1.463,0.915,2.123,1.477c3.273,2.784,3.239,2.714,7.191,0.745c6.708-3.343,13.544-6.375,20.952-7.863
		c2.122,0.66,1.225,1.801,0.342,2.754c-1.128,1.218-2.791,1.634-4.393,2.578c0.934,0.576,1.886,0.485,2.746,0.693
		c0.836,0.202,1.859,0.322,1.833,1.449c-0.023,1.007-0.922,1.386-1.763,1.651c-1.024,0.323-2.079,0.299-3.136,0.154
		c-7.188-1.299-8.255-1.879-7.84,5.654c0.095,1.729-0.282,3.525-0.923,5.113c-1.352,3.348-0.335,5.792,2.396,7.795
		c0.763,0.738,1.435,1.569,2.235,2.26c10.359,8.965,8.684,22.275,2.49,30.499c-3.48,4.472-7.617,7.884-13.453,8.84
		c-3.649,0.598-7.006-0.061-9.904-2.193c-2.095-1.542-2.752-0.641-3.512,1.207c-1.889,4.595-2.927,9.414-3.925,14.252
		c-1.111,3.848-1.49,4.126-4.258,3.136c-1.061-1.809-0.678-3.747-0.393-5.639c0.316-2.098,0.789-4.172,1.252-6.244
		c0.226-1.011,0.804-2.32-0.429-2.855c-1.415-0.614-1.63,0.973-2.094,1.791c-1.046,1.844-1.881,3.807-3.03,5.598
		c-0.569,0.887-0.999,1.89-2,2.423c-0.418,0.145-0.826,0.128-1.221-0.077c-0.938-1.173-0.157-2.215,0.321-3.218
		c1.164-2.441,2.195-4.973,3.75-7.189c1.447-2.063,1.386-3.876-0.213-5.764c-0.558-0.659-0.952-1.452-1.366-2.219
		c-1.586-2.936-1.942-3.045-4.714-1.048c-3.783,2.725-7.108,5.899-9.866,9.709c-4.435,6.127-9.394,11.78-15.682,16.125
		c-1.472,1.017-2.91,2.068-4.737,2.363c2.767-0.391,5.465-1.34,8.308-0.598c0.815,0.465,1.569,1.012,2.185,1.715
		c0.949,1.081,0.795,2.004-0.47,2.723c-6.31,1.508-12.788,1.959-19.17,3.03c-8.2,1.377-16.423,2.607-24.572,4.278
		c-1.412,0.29-2.835,0.692-4.288,0.184C248.031,390.834,246.158,390.024,246.05,387.809z"/>
	<path class="st4" d="M523.143,385.749c2.9,2.355,8.017,3.191,10.342,1.69c3.731,1.919,7.921,1.992,11.901,2.861
		c13.853,3.026,27.643,6.287,41.376,9.822c3.051,0.785,3.777,2.083,3.765,5.094c-0.113,26.724-0.068,53.449,0.015,80.174
		c0.008,2.429-0.214,3.01-2.917,2.189c-23.275-7.068-46.917-12.647-70.841-17.038c-19.384-3.558-38.858-6.49-58.462-8.533
		c-2.594-0.27-5.186-0.56-7.78-0.84c-0.229-1.452-0.277-3.057-2.511-2.591c-0.643,0.134-1.426-0.033-1.037,1.093
		c0.625,1.806-1.067,1-1.664,1.433c-0.375,0.084-0.75,0.168-1.125,0.252c-3.908-0.399-7.834-0.564-11.747-0.889
		c-6.223-0.517-12.46-0.678-18.697-0.69c-0.284-0.092-0.545-0.24-0.776-0.429c-0.961-1.298,0.679-1.472,1.004-2.336
		c-0.669-0.55-1.488-0.516-2.353-0.514c-0.884,0.854,1.104,2.22-0.483,2.942c-2.096,0.659-4.032,0.095-5.931-0.755
		c-0.782-1.168-1.837-1.889-3.26-2.082c-1.907-0.259-3.819-0.474-5.727-0.723c-2.564-0.335-4.415,0.826-5.771,2.933
		c-3.544,0.92-7.103,0.7-10.664,0.175c-1.16-2.294-2.931-3.657-5.583-3.878c-0.566-0.047-1.256-0.58-0.881-1.478
		c1.099-1.062,2.503-0.898,3.837-0.928c15.079-0.339,30.183-0.217,45.208,0.736c24.872,1.577,49.699,3.799,74.347,7.832
		c29.135,4.768,57.956,10.839,86.329,19.013c1.493,0.43,3.033,0.966,2.567-1.649c-0.223-1.637-0.23-3.28-0.229-4.925
		c0.004-21.185,0.006-42.371,0-63.556c-0.001-4.921-0.026-4.869-4.873-6.163c-18.779-5.014-37.746-9.177-56.868-12.641
		c-1.047-0.19-2.099-0.364-3.021-0.947c-1.902-2.433,0.544-3.369,1.645-4.771C522.597,385.454,522.885,385.494,523.143,385.749z"/>
	<path class="st5" d="M373.313,454.263c1.206,0.243,2.378,0.566,3.641,0.625c2.835,0.134,3.155,0.743,2.161,3.451
		c-2.193,1.516-4.779,1.065-7.199,1.378c-1.613,0.209-3.273,0.047-4.91,0.022c-4.343-1.01-8.661,0.113-12.983,0.251
		c-6.351,0.204-12.679,0.985-19.035,1.255c-4.845-0.988-9.59,0.295-14.342,0.782c-26.923,2.76-53.544,7.428-79.977,13.181
		c-16.024,3.487-31.912,7.536-47.609,12.291c-2.357,0.714-2.676,0.238-2.669-2.027c0.081-27.113,0.109-54.227,0.015-81.341
		c-0.008-2.443,0.79-3.306,3.023-3.899c16.883-4.48,33.854-8.561,51.027-11.777c0.553-0.104,1.065-0.426,1.596-0.646
		c0.91,1.302,2.89,1.743,2.978,3.706c-0.944,1.876-2.845,1.807-4.496,2.13c-15.171,2.968-30.242,6.37-45.154,10.455
		c-3.842,1.053-3.877,1.092-3.88,5.175c-0.017,21.27-0.003,42.539-0.013,63.809c-0.001,1.639,0.127,3.291-0.321,4.903
		c-0.066,0.898-1.373,1.717-0.417,2.612c0.686,0.643,1.677,0.116,2.493-0.13c25.78-7.781,52.067-13.326,78.561-18.003
		c17.729-3.129,35.574-5.283,53.495-6.855c13.187-1.156,26.385-2.166,39.631-2.308C370.434,453.288,372.062,452.988,373.313,454.263
		z"/>
	<path class="st6" d="M334.987,461.245c0.381-0.758,0.997-1.104,1.841-1.161c5.716-0.381,11.427-0.981,17.148-1.093
		c3.267-0.064,6.456-0.836,9.725-0.677c1.16,0.057,2.301,0.062,3.353,0.626c3.494,0.758,7.056,0.272,10.575,0.588
		c9.124,0.818,18.233,0.632,27.353-0.189c2.818-0.254,5.687,0.082,8.504-0.45c2.172,0.008,4.345,0.053,6.516,0.016
		c7.308-0.125,14.546,1.032,21.838,1.165c1.041,0.019,1.907,0.243,2.364,1.283c-9.669,3.705-19.737,5.826-29.926,7.396
		c-15.09,2.325-30.238,2.526-45.38,0.619C357.312,467.91,345.941,465.417,334.987,461.245z"/>
	<path class="st5" d="M445.331,461.103c-0.066-0.646,2.492-0.21,0.673-1.528c-1.766-1.28-0.742-1.673,0.55-1.78
		c1.789-0.149,3.62-0.216,5.273,0.8c-0.165,1.055-1.379,1.489-1.286,2.573C448.805,461.146,447.068,461.124,445.331,461.103z"/>
	<path class="st7" d="M194.476,478.079c0.04-23.493,0.11-46.985,0.072-70.478c-0.004-2.351,0.476-3.436,3.015-4.126
		c16.466-4.474,33.104-8.16,49.841-11.428c0.555-0.108,1.083-0.351,1.624-0.531c7.023-1.196,14.036-2.464,21.074-3.569
		c9.236-1.449,18.493-2.769,27.741-4.145c2.392-1.856,5.322-1.598,8.054-1.903c15.358-1.712,30.754-2.91,46.191-3.754
		c17.472-0.956,34.954-1.435,52.428-0.964c13.983,0.377,27.967,1.08,41.937,2.059c22.875,1.604,45.551,4.646,68.144,8.429
		c1.963,0.329,4.109,0.262,5.625,1.943c10.666,2.162,21.339,4.286,31.995,6.495c10.672,2.213,21.222,4.945,31.789,7.606
		c1.774,0.447,2.443,1.164,2.437,3.111c-0.083,23.915-0.065,47.83-0.072,71.745c-1.596,1.246-3.168,0.269-4.673-0.157
		c-18.721-5.295-37.616-9.874-56.706-13.616c-22.033-4.319-44.203-7.792-66.555-9.952c-11.733-1.134-23.481-2.098-35.273-2.587
		c-13.521-0.561-27.041-1.363-40.571-1.008c-12.455,0.327-24.908,0.742-37.352,1.59c-17.374,1.185-34.686,2.825-51.917,5.328
		c-24.813,3.605-49.397,8.38-73.71,14.526c-6.846,1.731-13.667,3.562-20.46,5.493C197.621,478.623,196.002,479.391,194.476,478.079z
		"/>
	<path class="st8" d="M523.143,385.749c-0.2,0.046-0.4,0.091-0.599,0.137c-1.165,0.765-2.417,0.484-3.65,0.279
		c-10.561-1.75-21.112-3.567-31.744-4.863c-1.151-0.14-2.304-0.362-3.049-1.418c1.398-6.72,2.699-13.428,2.693-20.361
		c-0.011-13.67-3.255-26.601-8.376-39.152c-0.348-0.853-0.656-1.723-1.088-2.861c2.998,0.753,5.564,1.959,8.388,1.986
		c0.673,0.006,1.546,0.263,1.987-0.06c3.425-2.51,8.021-2.78,11.024-6.232c2.952-3.393,5.615-6.892,7.382-11.032
		c2.527-5.921,3.824-12.165,4.543-18.519c0.241-2.131,0.869-2.793,3.126-2.855c5.774-0.159,11.025-2.028,15.077-6.363
		c2.341-2.504,3.733-5.425,2.525-8.991c-0.372-1.098-0.129-2.038,0.431-3.026c1.892-3.337,1.396-6.531-0.905-9.445
		c-0.74-0.938-0.908-1.67-0.603-2.859c1.262-4.927-0.979-8.844-5.832-10.387c-5.647-1.795-11.044-0.797-16.724,1.897
		c0.61-4.184,1.186-8.047,0.238-11.944c-1.502-6.181-6.51-9.837-12.03-8.571c-4.445,1.02-6.752,4.724-5.715,9.181
		c0.467,2.007,1.541,3.741,2.472,5.543c2.414,4.674,3.28,9.38,0.933,14.449c-1.956,4.223-2.824,8.654-0.665,13.161
		c0.255,0.533,0.337,1.024,0,1.626c-2.438,4.36-5.795,7.862-9.726,10.9c-1.15,0.888-1.699,0.217-2.458-0.37
		c-4.84-3.737-9.196-7.999-13.453-12.369c-5.782-5.935-12.035-11.207-19.958-14.098c-0.889-0.325-1.559-0.644-1.507-1.776
		c0.091-1.967-0.988-3.47-2.154-4.9c3.244-2.493,6.513-4.895,9.661-7.446c11.067-8.968,19.057-20.171,24.202-33.455
		c0.804-2.077,0.232-2.676-1.79-2.424c-0.722,0.09-1.441,0.211-2.349,0.346c1.311-1.634,4.319-2.343,3.824-4.162
		c-0.546-2.008-3.381-0.927-5.167-1.225c-8.59-1.43-15.329-6.173-21.544-11.807c-3.004-2.723-5.634-5.857-8.489-8.75
		c-0.817-0.828-0.945-1.457-0.273-2.478c3.791-5.757,6-12.117,6.665-18.958c0.224-2.308,0.799-2.681,2.962-1.768
		c25.827,10.9,47.579,27.132,64.841,49.308c16.791,21.57,27.625,45.834,31.626,72.85
		C553.934,313.271,545.696,351.127,523.143,385.749z"/>
	<path class="st9" d="M323.109,221.337c-1.786,1.836-3.736,2.723-5.497,3.881c-1.831,1.204-1.595,2.268,0.29,3.082
		c0.968,0.417,2.018,0.641,3.021,0.981c0.932,0.316,2.822-0.327,1.732,1.998c-0.303,0.647,1.074,1.201,1.745,1.699
		c7.707,5.72,15.751,10.835,24.908,13.989c0.616,0.212,2.137,0.004,1.724,1.351c-0.399,1.301-1.504,1.179-2.608,0.662
		c-4.384-2.052-8.667-1.458-12.781,0.741c-4.097,2.189-8.067,4.538-13.016,4.245c-2.102-0.125-1.713,1.381-0.963,2.577
		c2.937,4.68,7.399,6.88,12.695,7.662c0.647,0.096,1.308,0.099,2.443,0.179c-1.619,1.913-3.462,2.922-5.093,4.164
		c-3.23,2.461-6.572,4.782-9.694,7.372c-1.782,1.478-2.181,0.871-2.743-0.964c-1.594-5.201-3.861-10.12-7.023-14.559
		c-0.379-0.533-0.563-4.018-2.589-0.822c-0.317,0.5-1.128-0.769-1.58-1.306c-4.295-5.104-9.355-9.214-15.388-12.1
		c-8.307-3.974-17.274-5.356-25.996-3.309c-9.197,2.159-18.55,4.854-25.91,11.568c-2.374,2.166-4.651,4.373-5.749,7.507
		c-0.884,2.522-0.287,4.548,1.947,6.07c2.395,1.631,4.939,3.09,7.136,4.957c9.146,7.774,13.615,18.036,15.356,29.681
		c0.186,1.241,0.966,2.951,0.433,3.65c-3.154,4.13,0.105,8.088,0.168,12.07c0.076,4.758-0.93,9.416-0.665,14.147
		c0.145,2.606,0.11,5.216,0.469,7.821c0.104,0.753,1.548,2.854-1.333,2.469c-0.854-0.114-0.438,1.084-0.373,1.688
		c0.65,6.106,2.614,11.825,4.82,17.528c1.553,4.016,2.273,8.283,5.112,11.828c2.283,2.851,4.606,5.681,7.193,8.808
		c-6.213,1.131-12.119,2.268-18.051,3.247c-1.72,0.284-2.087-1.517-2.752-2.562c-9.197-14.455-15.903-29.981-20.153-46.604
		c-5.868-22.949-7.007-46.081-2.076-69.259c11.369-53.446,41.818-91.904,91.318-115.131c1.038-0.487,2.119-0.88,3.689-1.528
		c-0.688,4.009-1.062,7.672-0.542,11.385c1.343,9.598,5.084,18,12.126,24.749c1.183,1.133,1.344,2.016,0.846,3.485
		c-3.63,10.716-8.68,20.472-18.013,27.427c-0.309,0.23-0.631,0.47-0.866,0.769c-0.506,0.646-1.691,1.062-1.273,2.053
		c0.405,0.961,1.533,0.465,2.35,0.578C322.185,221.3,322.476,221.299,323.109,221.337z"/>
	<path class="st10" d="M355.8,238.102c-0.997-1.793-0.456-3.783-0.765-5.657c-0.124-0.752,1.448-2.364-1.05-2.33
		c-0.688,0.009,0.145-1.127,0.403-1.599c4.315-7.883,11.004-12.124,19.906-13.163c6.084-0.71,11.956,0.213,17.718,1.929
		c2.041,0.608,3.519,0.256,5.053-0.99c2.023-1.644,3.997-3.387,6.185-4.783c4.759-3.035,9.614-2.549,14.424,0.136
		c-2.324,0.255-4.666,0.176-6.948,0.766c-1.501,0.388-2.972,0.814-4.331,1.559c-2.134,1.17-3.936,2.715-3.808,5.365
		c0.132,2.729,2.293,3.861,4.502,4.744c5.758,2.302,9.782,1.616,13.511-2.288c1.997-2.091,3.605-4.331,1.793-7.846
		c3.104,1.568,3.993,3.959,4.199,6.563c0.41,5.198-4.674,11.173-9.557,10.04c-3.454-0.801-4.782,1.086-6.786,2.321
		c-6.857,4.228-12.646,3.73-18.354-1.842c-1.426-1.392-2.743-2.895-4.36-4.611c1.527-0.262,2.633-0.452,3.873-0.665
		c-5.389-3.728-13.603-0.828-15.806,5.772c2.297-1.618,4.103-3.403,6.546-4.184c1.877-0.6,3.333-0.502,4.483,1.333
		c0.714,1.139,1.665,2.133,2.55,3.158c6.803,7.878,15.219,8.771,23.544,2.475c1.084-0.82,2.013-1.548,3.588-1.432
		c6.849,0.501,11.803-3.773,12.647-10.703c0.446-3.664,0.445-3.661,4.073-2.917c0.254,0.052,0.529,0.007,0.828,0.007
		c-0.233-0.955-0.911-1.628-1.623-1.574c-4.254,0.321-5.727-3.449-8.423-5.608c5.852-2.898,11.758-5.35,18.505-4.261
		c2.325,0.375,4.444,1.239,6.405,2.536c5.19,3.433,4.597,8.897,4.364,13.868c-0.235,5.027-2.339,9.296-7.009,12.271
		c-5.12,3.262-9.812,7.198-14.667,10.872c-1.127,0.853-2.409,1.589-3.302,3.664c2.299-1.168,4.079-2.073,6.127-3.114
		c-0.867,2.978-2.771,4.68-5.287,5.777c-6.704,2.923-13.801,3.589-20.991,3.318c-7.941-0.299-15.709-1.812-23.364-3.911
		c-1.094-0.3-2.182-0.625-3.272-0.939c-1.27-2.979-3.87-4.504-6.572-5.817c-4.959-2.41-10.177-4.183-15.387-5.96
		C357.983,239.909,356.625,239.433,355.8,238.102z"/>
	<path class="st11" d="M378.706,212.963c-5.935,0.005-10.854,1.495-15.612,3.742c-2.686,1.268-4.741,3.341-6.905,5.217
		c-2.038,1.767-3.498,1.375-5.221-0.197c-1.623-1.481-2.804-3.499-5.216-4.163c8.142-7.638,13.148-17.255,18.58-26.582
		c2.328-3.997,4.375-8.181,7.835-11.435c3.665-3.447,7.014-4.144,11.639-2.184c4.249,1.801,7.627,4.866,11.148,7.712
		c1.436,1.161,2.898,2.251,4.567,3.035c4.367,2.051,8.38,1.109,11.335-2.673c1.663-2.129,3.263-4.308,4.919-6.442
		c2.139-2.755,4.976-3.019,8.101-2.216c3.6,0.924,6.421,3.223,8.983,5.665c6.029,5.746,12.876,10.475,19.159,15.898
		c3.309,2.856,4.639,7.873,3.09,11.493c-0.813,1.901-1.642,2.058-3.102,0.737c-2.682-2.427-5.565-4.149-9.39-4.636
		c-5.327-0.679-10.235,0.383-14.85,2.614c-3.622,1.751-6.787,2.225-10.63,0.533c-8.047-3.544-14.593-0.214-20.421,5.34
		c-0.35,0.334-0.743,0.632-1.049,1.002c-0.802,0.968-1.706,1.068-2.827,0.564c-1.534-0.689-0.476-1.71-0.258-2.441
		c2.617-8.816,2.095-17.343-2.218-25.533c-1.133-2.152-2.518-4.085-4.831-5.23c-3.578-1.77-7.113-0.997-9.321,2.388
		c-3.902,5.983-3.464,12.461-1.883,19.006C375.06,207.2,376.452,209.949,378.706,212.963z"/>
	<path class="st1" d="M344.237,189.728c-0.121-1.324-1.308-1.849-2.056-2.684c-8.557-9.539-13.395-20.485-12.481-33.52
		c0.397-5.671,3.416-7.558,8.915-5.877c4.859,1.485,9.116,4.175,13.353,6.861c3.517,2.229,7.078,4.337,11.043,5.81
		c-0.099,1.336-1.922,1.636-1.752,3.442c8.786-4.68,16.5-10.326,22.132-18.622c-0.696,3.257-3.166,5.673-3.736,9.021
		c5.678-4.397,10.564-9.995,18.658-10.729c-3.863,2.571-7.485,4.913-9.847,8.799c6.833-3.316,13.802-5.486,22.147-3.923
		c-5.321,1.598-10.52,2.044-14.708,6.14c4.214,0.022,7.984,0.228,11.72,0.892c12.105,2.152,21.931,8.159,29.945,17.371
		c5.458,6.275,10.776,12.701,17.866,17.302c5.462,3.544,11.136,6.448,18.633,6.243c-3.169,2.061-5.956,2.957-8.85,3.594
		c-5.072-1.718-9.321-4.78-13.364-8.183c-3.578-3.466-7.559-6.523-10.658-10.481c-0.192-1.344-1.181-2.163-2.008-3.1
		c-3.601-4.079-7.873-7.354-12.296-10.471c-3.264-2.3-10.002-2.355-13.066,1.002c-2.253,2.469-4.128,5.066-5.414,8.124
		c-3.414,3.932-6.314,4.446-11.369,2.029c-4.664-6.259-10.37-11.028-18.219-12.724c-0.379-0.082-0.809-0.228-1.142-0.082
		c-5.341,2.335-11.248,3.848-14.219,9.671c-0.133,0.261-0.074,0.564-0.013,0.849c0.645,1.805-1.598,2.418-1.62,3.956
		c-1.141,0.57-2.049,1.386-2.745,2.466c-1.976,3.066-3.463,6.423-5.576,9.407c-0.375,0.53-0.277,1.09-0.221,1.66
		c-0.885,2.465-2.859,4.418-3.333,7.083c-2.564,1.932-4.231,4.449-4.946,7.588c-1.1,3.117-3.193,5.556-5.403,7.917
		c-1.904,0.888-2.451,3.56-4.895,3.746c-2.713-1.318-3.181-2.129-1.647-4.318c5.203-7.427,8.008-15.822,10.276-24.462
		C343.516,190.856,343.799,190.258,344.237,189.728z"/>
	<path class="st12" d="M453.403,264.237c-0.439-0.172-0.988-0.596-1.294-0.463c-0.645,0.282-0.15,0.782,0.093,1.139
		c0.487,0.719,0.964,1.453,1.529,2.109c8.144,9.463,13.297,20.257,14.508,32.783c0.557,5.756,2.714,10.999,4.872,16.273
		c6.033,14.743,10.516,29.835,9.951,46.017c-0.203,5.81-1.108,11.521-2.327,17.191c-1.901,1.343-3.633,1.219-5.168-0.6
		c4.798-16.046,2.974-31.905-1.456-47.655c-1.806-6.423-4.19-12.655-7.243-18.6c-1.12-2.18-1.571-4.236-1.331-6.815
		c0.854-9.145-1.78-17.589-6.195-25.514c-2.839-5.097-6.078-9.916-10.83-13.457c-1.21-0.902-0.995-1.955-0.94-3.087
		c0.202-4.183,0.146-8.326-2.055-12.642c5.31,2.191,9.516,5.238,13.447,8.719c5.575,4.937,10.635,10.439,16.464,15.096
		c1.496,1.195,4.071,1.925,4.486,3.354c0.462,1.587-2.133,2.873-3.13,4.502c-1.286,2.1-1.794,3.445-1.618,5.814
		c3.323-6.582,9.672-9.978,14.855-14.658c1.291,3.209,2.645,6.785,5.785,7.84c2.601,0.874,4.881,2.429,7.538,3.048
		c1.014,1.146,0.954,2.496,0.644,3.842c-1.542,6.691-4.142,12.87-8.84,18.011c-1.113,1.219-2.363,2.276-3.752,3.172
		c-7.058,4.555-14.825,2.049-17.986-5.777c-1.213-3.004-1.398-6.193-1.838-9.342c-1.538-11.021-6.495-20.291-14.39-28.044
		C456.11,265.44,455.257,263.99,453.403,264.237z"/>
	<path class="st13" d="M413.942,268.25c-8.644-1.844-16.71-5.015-24.068-9.955c4.87,0.808,9.731,1.46,14.622,1.882
		c7.194,0.622,14.288,0.068,21.19-2.085c3.341-1.042,6.378-2.743,8.88-5.28c1.035-1.049,2.317-2.283,2.214-3.623
		c-0.184-2.415,1.397-3.067,2.913-3.981c1.923-1.16,3.001-0.684,3.147,1.574c0.218,3.366-1.466,6.122-3.123,8.86
		c-1.078,1.782-2.493,3.418-2.633,6.009c2.778-2.078,4.327-4.869,6.673-7.451c1.734,6.629,0.717,12.741-1.122,18.727
		c-1.977,6.438-5.337,12.167-9.542,17.44c-1.614,2.023-2.919,2.233-5.321,1.054c-18.076-8.871-34.989-19.693-51.956-30.452
		c-5.365-3.402-10.943-6.641-17.684-6.47c-0.728,0.018-1.574-0.108-1.174-1.051c0.527-1.245,0.732-3.13,2.68-2.914
		c6.7,0.742,13.484,1.196,19.51,4.755c8.73,5.156,17.524,10.182,27.578,12.376C409.074,268.179,411.425,268.801,413.942,268.25z"/>
	<path class="st14" d="M263.726,315.575c-0.381-4.411,0.371-8.594-0.65-12.69c-0.235-0.941,0.461-1.623,0.932-2.349
		c3.048-4.689,6.062-9.4,9.158-14.057c0.513-0.772,0.81-2.462,2.484-1.097c0.448,0.366,1.025-0.361,1.397-0.783
		c0.509-0.577,0.972-1.198,1.42-1.825c6.338-8.857,14.733-14.989,24.955-18.566c4.586-1.605,5.321-1.134,8.084,2.77
		c2.254,3.185,3.795,6.709,5.334,10.253c0.636,1.465,0.235,2.372-0.955,3.456c-3.32,3.027-7.131,4.915-11.331,6.503
		c-7.09,2.679-12.707,7.919-19.022,11.909C277.823,303.973,272.397,311.67,263.726,315.575z"/>
	<path class="st15" d="M263.514,340.615c0-0.134,0.174-1.05-0.037-1.866c-0.421-1.629,0.526-2.204,1.747-2.273
		c6.434-0.365,10.501-5.405,15.817-7.816c8.441-3.829,15.587-10.312,24.967-12.157c1.211-0.238,2.014-0.291,2.95,0.861
		c2.447,3.012,5.37,5.603,8.757,7.503c2.088,1.171,1.563,2.861,1.506,4.53c-0.063,1.859-1.554,1.559-2.757,1.776
		c-6.336,1.143-11.366,4.897-16.823,7.993c-7.079,4.016-12.213,10.332-19.007,14.575c-3.542,2.212-7.257,4.003-11.291,5.068
		c-1.95,0.515-3.31,0.051-3.772-2.291C264.581,351.498,263.587,346.493,263.514,340.615z"/>
	<path class="st16" d="M475.566,378.687c1.693,0.458,3.4,0.794,5.168,0.6c1.041,0.659,2.211,0.59,3.367,0.598
		c12.857,1.723,25.71,3.474,38.442,6.001c-0.168,1.62-2.216,2.067-2.321,3.727c-22.856-3.913-45.788-7.311-68.921-9.034
		c-30.021-2.236-60.08-3.144-90.182-1.877c-20.872,0.878-41.68,2.499-62.409,5.109c-0.284,0.036-0.578-0.004-0.867-0.008
		c0.695-2.153-2.27-1.775-2.344-3.396c0.295-1.576,1.67-1.37,2.71-1.534c4.365-0.688,8.758-1.32,13.156-1.551
		c3.179-0.167,5.236-1.445,6.75-4.064c0.395-0.683,0.637-1.705,1.814-1.514c0.309-0.002,0.618-0.004,0.926-0.006
		c1.598,1.449,0.002,2.786-0.276,4.147c2.522,0.862,5.055-0.519,7.436,0.489c3.635,1.961,2.346-1.809,3.363-2.895
		c1.039,1.199,2.266,1.801,3.92,1.51c0.927-0.164,1.869,0.052,2.633,0.709c11.237-0.523,22.474-1.054,33.712-1.559
		c1.729-0.078,3.464-0.031,5.195-0.047c0.853-0.008,1.815,0.149,1.863-1.159c0.622,0.664,1.276,1.66,1.648-0.165
		c0.451,1.531,1.694,1.246,2.822,1.239c13.027-0.074,26.052,0.074,39.065,0.674c16.951,0.781,33.889,1.785,50.739,3.911
		c0.38,0.048,0.77,0.016,1.156,0.022C474.609,378.638,475.088,378.663,475.566,378.687z"/>
	<path class="st17" d="M278.624,357.12c1.662-1.304,3.173-3.391,5.018-3.749c3.934-0.762,4.977-4.787,7.928-6.193
		c8.326-3.968,13.899-12.419,23.546-14.191c3.641-0.669,3.533-0.876,3.779,2.854c0.228,3.466,0.503,6.952,1.651,10.261
		c0.465,1.341,0.283,1.901-1.057,2.639c-6.361,3.502-11.156,8.644-15.463,14.476c-3.77,5.105-8.105,9.844-13.618,13.258
		c-1.275,0.353-1.997-0.506-2.631-1.328c-3.649-4.723-6.794-9.752-9.044-15.305C278.379,358.967,277.929,358.056,278.624,357.12z"/>
	<path class="st18" d="M397.084,178.282c4.12,1.737,7.934,1.688,11.143-1.908c1.44-2.739,3.104-5.288,5.387-7.445
		c4.692-4.434,11.233-4.127,15.404,0.853c0.321,0.383,0.661,0.68,1.11,0.876c5.049,2.199,8.307,6.407,11.703,10.46
		c3.47,3.323,6.941,6.646,10.411,9.969c0.499,2.465,0.169,2.858-2.375,2.835c-5.466-3.681-9.974-8.499-15.024-12.675
		c-2.459-2.033-4.803-4.21-7.681-5.658c-5.473-2.754-10.051-1.736-13.843,3.057c-1.558,1.97-2.972,4.069-4.668,5.911
		c-2.54,2.759-6.075,3.178-9.159,1.021c-3.244-2.268-6.282-4.828-9.457-7.197c-9.62-7.177-15.541-6.258-22.619,3.504
		c-4.948,6.824-8.216,14.646-12.761,21.697c-3.373,5.234-6.58,10.705-12.109,14.128c-2.24,1.592-2.892,0.004-3.468-1.736
		c2.055-2.292,4.126-4.574,5.206-7.542c1.807-2.488,3.059-5.366,5.299-7.548c-0.246-3.007,1.778-4.891,3.433-6.956
		c2.648-4.829,4.691-10.035,8.718-14.003c-0.965-1.598,1.988-1.885,1.15-3.441c3.179-3.783,6.22-7.192,11.41-9.027
		c6.376-2.254,10.654,0.415,15.014,3.674C392.1,173.22,395.274,175.056,397.084,178.282z"/>
	<path class="st19" d="M261.24,278.725c1.99-5.786,5.612-10.486,9.821-14.799c0.948-0.971,0.96-1.03-0.163-2.005
		c-0.646-0.561-0.052-0.839,0.184-1.114c4.836-5.641,10.721-9.63,17.991-11.467c0.77-0.195,1.341,0.055,1.916,0.338
		c6.012,2.959,11.524,6.601,16.187,12.08c-7.218,1.129-13.236,4.274-18.562,8.821c-0.265,0.226-0.722,0.511-0.971,0.424
		c-1.654-0.571-1.642-0.6-2.646,0.524c-2.64,2.959-4.908,6.198-7.271,9.818c-0.687-2.658-1.562-1.917-2.535-0.454
		c-2.349,3.534-4.731,7.047-7.1,10.568c-0.847,0.143-1.284-0.458-1.53-1.053c-1.437-3.477-3.311-6.725-5.08-10.03
		C261.228,279.902,260.981,279.324,261.24,278.725z"/>
	<path class="st20" d="M257.394,283.702c-2.394-3.217-3.928-6.228-6.358-8.641c-3.32-3.295-6.753-6.305-11.094-8.225
		c-2.917-1.29-3.383-2.844-1.59-5.526c3.061-4.581,7.739-7.218,12.534-9.535c8.476-4.096,17.368-6.285,26.892-5.649
		c3.021,0.202,5.769,1.045,9.366,2.203c-7.18,2.218-12.354,6.188-16.803,11.115c-1.913,2.119-4.372,3.9-4.238,7.443
		c0.046,1.23-1.657,2.502-2.503,3.793C261.052,274.569,259.196,278.809,257.394,283.702z"/>
	<path class="st21" d="M271.682,312.415c2.48-2.281,4.667-5.048,7.493-6.756c9.733-5.881,17.415-15.067,29.247-18.031
		c-1.585,2.346-3.304,4.445-4.458,6.902c-1.795,3.823-2.995,7.775-2.24,12.006c0.309,1.735,0.142,4.109,3.302,4.018
		c0.621-0.018,1.627,2.47,1.876,3.903c0.197,1.13-1.29,0.747-2.033,0.957c-6.649,1.879-12.704,4.969-18.344,8.974
		c-0.708-0.638,0.118-1.244-0.239-2.324c-4.426,3.14-8.049,7.186-12.848,9.536c-1.102-0.837-1.349-2.093-1.426-3.323
		c-0.268-4.296-0.714-8.575-1.099-12.86C270.816,314.316,271.149,313.345,271.682,312.415z"/>
	<path class="st22" d="M341.481,145.369c23.764-8.421,56.554-10.217,83.467-3.331c-3.154,4.006-6.257,7.89-9.821,11.394
		c-0.75,0.737-1.458,0.61-2.362,0.389c-2.297-0.562-4.627-0.986-7.234-1.525c2.94-1.192,5.872-1.259,8.649-1.968
		c0.934-0.239,2.063-0.262,2.115-1.528c0.044-1.084-0.998-1.321-1.771-1.659c-4.969-2.174-10.114-2.188-15.476-1.09
		c0.826-1.381,2.28-1.647,3.283-2.508c0.502-0.431,1.276-0.708,1.064-1.543c-0.237-0.934-1.075-0.975-1.862-1.013
		c-4.277-0.204-8.2,1.002-11.907,3.028c-1.092,0.597-2.14,1.275-3.249,1.941c-0.329-1.633,1.479-3.753-0.32-4.527
		c-1.641-0.706-3.102,1.15-4.271,2.435c-2.017,2.218-3.985,4.482-5.938,6.757c-2.224,2.59-4.833,4.65-7.705,6.523
		c-2.532,1.651-4.598,1.399-6.906-0.118c-3.714-2.44-7.506-4.763-11.2-7.233C347.38,148.016,344.48,146.735,341.481,145.369z"/>
	<path class="st23" d="M347.811,351.353c1.595,0.855,1.869,0.341,1.414-1.249c-0.821-2.873-2.819-5.215-3.326-8.29
		c-0.352-2.138-0.217-4.063,0.677-5.868c0.912-1.839,0.625-3.125-1.318-3.519c-2.583-0.524-3.085-2.462-3.13-4.425
		c-0.042-1.838,1.781-1.961,3.184-2.292c1.102-0.26,1.107-0.936,0.965-1.977c-0.498-3.665,0.236-3.904,3.695-4.447
		c4.341-0.682,6.096,2.427,8.512,4.68c6.122,5.709,6.849,12.696,4.318,20.201c-1.529,4.533-4.849,7.906-8.621,10.66
		c-3.362,2.454-7.305,2.47-11.077,1.076c-2.742-1.013-4.828-2.895-4.522-6.294c0.766-0.387,1.56-0.24,2.236,0.112
		C343.019,350.867,345.407,351.122,347.811,351.353z"/>
	<path class="st24" d="M502.799,282.223c-0.459-0.1-1.168-0.047-1.337-0.324c-1.019-1.667-2.329-1.99-4.262-1.81
		c-1.372,0.128-2.92-0.71-2.187-2.801c0.237-0.676,0.303-1.653-0.435-1.759c-3.888-0.56-1.888-3.195-1.799-5.057
		c0.044-0.916,0.584-1.822,0.972-2.701c0.129-0.293,0.471-0.679,0.735-0.695c2.307-0.143,2.367-0.145,1.419-2.49
		c-1.684-4.168-1.782-8.329,0.243-12.35c2.909-5.774,2.357-11.373-0.427-16.956c-0.69-1.383-1.501-2.712-2.097-4.133
		c-1.184-2.82-0.608-5.397,1.388-6.783c1.971-1.369,5.109-0.993,7.211,0.945c2.346,2.163,3.153,5.032,3.423,8.077
		c0.265,2.986-0.439,5.985,0.061,8.978c0.176,1.051-0.778,1.477-1.31,2.115c-3.521,4.225-3.879,8.122-1.138,12.785
		c0.195,0.332,0.634,0.665,0.604,0.962c-0.393,4.011,1.431,7.28,3.017,10.784c1.028,2.271,1.8,4.399,4.01,5.706
		c-1.305,2.33-3.743,1.782-5.771,2.278c-4.366-2.015-5.428-4.844-4.203-11.195c-3.581,3.905-2.29,9.554,2.975,13.015
		C504.854,280.378,503.886,281.32,502.799,282.223z"/>
	<path class="st25" d="M319.93,371.743c-0.713,1.533-1.639,2.912-2.615,4.303c-1.185,1.69-2.669,1.924-4.46,2.095
		c-5.81,0.552-11.645,0.944-17.356,2.265c-2.867,0.166-5.688,1.023-8.992,0.455c9.748-5.138,16.326-13.178,22.593-21.61
		c2.65-3.565,6.216-6.293,10.007-8.665c1.584-0.991,2.812-1.305,3.319,1.05c0.118,0.549,0.376,1.16,0.765,1.545
		c3.893,3.862,2.87,7.548,0.011,11.525C321.715,366.775,320.554,369.18,319.93,371.743z"/>
	<path class="st26" d="M508.597,256.64c2.375-3.224,5.868-4.285,9.57-4.645c2.636-0.256,5.316-0.05,8.293-0.05
		c-4.089-4.557-13.733-2.624-20.913,3.764c-2.122-3.065-1.976-5.932,0.449-8.786c3.931-4.628,12.901-6.653,18.428-4.161
		c2.701,1.218,4.035,4.063,3.185,7.597c-0.321,1.334-0.169,2.132,0.76,3.044c2.017,1.981,2.329,4.604,1.481,7.008
		c-0.772,2.189-0.969,4.234-0.748,6.474c0.153,1.546-0.164,3.09-1.337,4.294c-5.313,1.927-10.307,0.669-15.164-1.603
		c-0.969-0.453-1.529-1.422-1.828-2.48c1.486-3.164,4.463-3.694,7.43-4.055c2.917-0.355,5.868-0.037,9.088,0.273
		c-1.887-2.659-3.786-3.016-11.653-2.543c-0.707,0.413-1.503,0.195-2.253,0.306C509.448,261.654,508.37,260.639,508.597,256.64z"/>
	<path class="st27" d="M453.403,264.237c0.896-0.065,1.505-1.154,2.735-0.033c7.956,7.258,13.203,16.091,15.676,26.53
		c0.751,3.17,0.722,6.522,1.438,9.703c1.11,4.93,3.428,9.009,8.83,10.423c5.144,1.347,8.865-1.268,12.03-4.638
		c5.657-6.025,8.871-13.23,9.231-21.591c4.036,0.283,4.012,0.277,3.041,4.473c-1.153,4.981-2.278,9.955-4.592,14.583
		c-1.894,3.788-4.567,6.919-7.661,9.726c-0.974,0.883-1.932,1.909-3.534,0.918c-0.994-0.615-2.013,0.079-2.48,0.899
		c-1.161,2.041-2.805,1.592-4.514,1.158c-0.186-0.047-0.361-0.153-0.549-0.182c-9.049-1.414-10.759-6.479-11.396-14.586
		c-1.161-14.77-6.552-27.017-17.74-36.701C453.708,264.737,453.573,264.467,453.403,264.237z"/>
	<path class="st28" d="M278.624,357.12c2.75,7.171,6.177,13.928,11.785,19.355c-2.709,2.282-5.948,3.446-9.265,4.49
		c-1.75,0.551-2.703-0.438-3.686-1.552c-4.787-5.429-7.99-11.761-10.772-18.762C271.06,360.374,274.919,358.983,278.624,357.12z"/>
	<path class="st29" d="M331.252,359.476c-5.855-6.327-8.272-13.833-8.931-22.011c-0.225-2.791-0.055-5.612-0.107-8.418
		c-0.026-1.397,0.434-1.632,1.731-1.093c4.812,1.998,9.689,3.822,14.805,4.913c0.471,0.1,1.256,0.47,1.024,0.723
		c-1.465,1.605-1.199,4.301-3.547,5.349c-5.983,2.671-7.407,8.916-3.076,13.699c0.87,0.961,1.097,1.535,0.344,2.643
		C332.644,356.535,332.046,357.961,331.252,359.476z"/>
	<path class="st30" d="M449.867,193.922c1.595-0.271,2.471-1.146,2.375-2.836c3.734,2.839,7.417,5.75,11.828,7.537
		c0.471,0.191,0.77,0.807,1.149,1.226c1.253,2.042,3.346,1.488,5.187,1.644c1.113,0.094,2.24,0.017,3.661,0.017
		c-2.234,2.601-4.993,4.28-6.792,6.883c0.72,1.29,0.732,2.34-0.244,3.708c-2.802,3.925-5.415,7.984-9.071,11.203
		c-0.804,0.708-1.475,1.874-2.877,1.236c-0.047-0.021-0.066-0.156-0.058-0.233c0.01-0.093,0.064-0.18,0.099-0.27
		c0.409-1.674-1.206-3.766,1.053-5.092c0.127-0.075,0.038-0.787-0.145-1.081c-1.693-2.709-0.805-5.158,0.473-7.736
		c1.188-2.395,1.361-4.995,0.296-7.557c-0.176-0.423-0.722-1.021-0.268-1.266c3.824-2.07-0.307-2.315-0.822-2.777
		C453.874,196.876,451.518,195.85,449.867,193.922z"/>
	<path class="st31" d="M351.311,234.556c0.811,0.179,1.239-0.954,2.269-0.568c-0.378,4.931,2.09,8.776,5.695,12.872
		c-12.335-3.146-22.437-9.325-33.216-15.56c3.282-0.539,6.025-0.989,8.767-1.439c0.66-1.392,1.749-2.355,3.079-3.079
		c1.02-0.196,1.934,0.187,2.692,0.75C344.033,230.085,348.312,231.345,351.311,234.556z"/>
	<path class="st32" d="M375.807,193.797c0.111-2.3,0.736-4.398,1.852-6.338c2.482-4.315,6.125-4.651,9.267-0.848
		c0.673,0.814,1.324,1.684,1.791,2.624c3.605,7.272,4.654,14.86,2.719,22.806c-0.47,1.932-0.97,3.514-3.559,2.266
		c-1.093-0.527-2.439-0.529-3.721-0.78c3.094-5.637,2.901-11.362,0.221-17.022C382.329,192.185,379.976,191.515,375.807,193.797z"/>
	<path class="st33" d="M337.932,375.698c-1.244,0.081-2.55-0.052-3.718,0.289c-2.45,0.715-3.098-0.305-2.834-2.508
		c0.83-5.756,2.402-11.293,4.877-16.563c0.472-1.005,0.87-2.114,2.131-0.625c3.917,4.625,12.008,4.458,17.048,1.253
		c2.64-1.679,4.716-3.937,6.84-6.164c-1.277,5.92-9.72,12.79-16.159,12.72c-2.72-0.03-4.309,0.801-5.317,3.234
		C339.668,370.065,338.119,372.644,337.932,375.698z"/>
	<path class="st34" d="M351.311,234.556c-4.485-2.484-8.97-4.967-13.455-7.451c-2.746-0.113-5.333-1.204-8.115-1.235
		c-1.213-0.014-1.708-1.113-0.715-2.027c1.737-1.599,3.299-3.551,5.897-3.864c1.678-1.031,2.231-3.231,4.155-4.005
		c1.112,0.668,1.714,2.354,3.468,1.736c0.186,0.309,0.318,0.832,0.566,0.894c3.457,0.874,6.199,2.803,8.387,5.569
		c0.642,0.812,1.572,0.981,2.572,1.206C352.606,228.326,350.827,231.111,351.311,234.556z"/>
	<path class="st35" d="M424.614,158.887c-2.646-1.39-5.185-2.723-7.894-4.146c4.991-3.9,8.966-8.524,13.129-12.963
		c2.122-2.263,4.449-4.318,7.309-5.617c3.289-1.494,5.023-0.891,6.499,2.406c2.613,5.834,2.013,11.927,0.969,17.947
		c-0.726,4.188-2.211,8.203-4.032,12.054c-0.31,0.655-0.286,2.291-1.721,1.553c-1.111-0.571-1.523-1.504-0.564-2.848
		c3.522-4.935,4.919-10.632,5.542-16.557c0.337-3.206,0.033-6.382-0.903-9.463c-1.074-3.536-2.811-4.074-5.71-1.696
		c-3.407,2.795-5.968,6.324-8.054,10.171C427.577,152.692,426.164,155.761,424.614,158.887z"/>
	<path class="st36" d="M334.922,219.979c-1.946,1.61-3.893,3.22-6.323,5.231c3.555,0.106,6.792-0.531,9.258,1.895
		c-0.166,1.849-2.165,1.678-3.029,2.757c-0.343-1.849-1.945-1.521-3.124-1.667c-3.733-0.462-7.483-0.776-11.536-1.178
		c0.951-1.448,2.35-1.84,3.474-2.562c2.37-1.522,4.578-3.237,6.502-5.296c0.578-0.619,1.492-1.452,0.994-2.21
		c-0.627-0.956-1.554,0.007-2.305,0.307c-1.297,0.517-2.433,1.483-4.43,1.535c3.265-2.697,5.928-5.337,8.271-8.301
		c4.318-5.463,7.343-11.537,8.853-18.348c0.328-1.482,0.703-2.851,2.712-2.413c-0.621,6.411-3.062,12.273-5.495,18.129
		c-1.187,2.858-2.732,5.566-4.661,7.958C332.491,217.787,332.901,218.943,334.922,219.979z"/>
	<path class="st37" d="M271.682,312.415c0.586,6.395,1.172,12.791,1.758,19.186c-2.466,1.815-5.346,2.584-8.254,3.294
		c-1.218,0.297-1.773-0.032-1.741-1.397c0.113-4.841,0.189-9.683,0.188-14.525c0-1.102,0.651-1.487,1.375-1.978
		C267.243,315.483,269.459,313.944,271.682,312.415z"/>
	<path class="st38" d="M436.043,143.924c1.249-1.665,2.538-4.432,4.509-3.817c2.131,0.665,1.856,3.709,1.91,5.898
		c0.193,7.823-1.68,15.073-6.173,21.729c-1.83-1.642-3.612-3.24-5.431-4.872c1.36-0.96,2.628-1.811,3.845-2.73
		c0.741-0.56,1.964-1.007,1.754-2.073c-0.26-1.317-1.69-0.901-2.707-1.18c0.001-1.495,2.659-2.345,1.083-4.217
		c-0.672-1.604-0.233-3.175,0.338-4.647C435.69,146.675,435.868,145.311,436.043,143.924z"/>
	<path class="st39" d="M338.412,256.224c2.909,0.496,4.718-0.618,6.646-0.926c0.958-0.153,1.898-0.449,2.855-0.232
		c0.917,0.207,1.382,0.667,0.529,1.564c-5.734,6.03-16.847,6.141-22.963,0.213c-0.053-0.051-0.037-0.174-0.103-0.537
		c4.626-0.285,8.371-2.95,12.5-4.646c2.906-1.194,5.856-2.019,8.993-0.878c0.779,0.283,1.984,0.281,1.957,1.329
		c-0.031,1.206-1.245,0.915-2.057,0.999C343.961,253.404,341.596,254.757,338.412,256.224z"/>
	<path class="st40" d="M355.8,238.102c6.353,2.566,12.95,4.484,19.195,7.352c2.067,0.949,3.751,2.355,5.509,3.687
		c0.948,0.718,1.623,1.722,0.82,3.018c-6.14-1.548-12.466-2.603-18.355-4.82C359.219,245.926,356.958,242.154,355.8,238.102z"/>
	<path class="st41" d="M364.611,299.682c-3.066,3.265-3.466,7.52-4.426,11.606c-0.656,2.795-1.732,5.492-2.621,8.232
		c-0.889-0.878-1.752-1.785-2.674-2.627c-1.058-0.965-1.181-1.968-0.692-3.338c1.374-3.849,1.939-7.85,1.832-11.947
		c-0.06-2.307,1.217-3.459,3.531-3.088C361.263,298.792,362.929,299.287,364.611,299.682z"/>
	<path class="st42" d="M328.016,376.374c-3.04,0.351-6.08,0.702-9.283,1.072c0.383-2.174,2.926-3.342,2.123-5.708
		c2.662-3.556,3.848-7.967,6.561-11.498c3.008,1.924,2.995,1.92,2.1,5.281C328.57,369.074,327.899,372.67,328.016,376.374z"/>
	<path class="st43" d="M261.24,278.725c2.91,3.907,4.561,8.493,6.852,12.734c-1.543,2.63-3.193,5.185-5.423,7.847
		c-1.005-4.455-2.56-8.34-3.845-12.296C257.893,284.149,260.081,281.409,261.24,278.725z"/>
	<path class="st44" d="M510.772,267.096c4.907,4.519,11.052,3.875,16.992,4.083c-4.846,6.029-15.815,8.846-22.646,5.817
		c1.619-1.532,3.915-1.346,5.771-2.278c3.092,0.755,6.153,1.228,9.742-1.27c-2.174,0-3.554,0.077-4.923-0.014
		C511.602,273.16,509.675,270.652,510.772,267.096z"/>
	<path class="st45" d="M338.401,297.392c6.522,0.788,12.14-2.37,18.095-4.099c3.988-1.158,7.867-3.405,12.266-1.695
		c-6.275,2.049-12.522,4.18-18.472,7.069c-2.217,1.077-4.445,3.345-6.508,3.172C341.877,301.678,340.186,298.975,338.401,297.392z"
		/>
	<path class="st46" d="M455.123,224.036c2.763-0.514,3.957-2.991,5.57-4.778c2.371-2.627,4.146-5.787,6.453-8.481
		c0.881-1.029-1.162-1.713,0.13-2.385c2.176,1.229,3.031-1.734,5.151-1.514c-4.849,8.542-10.865,15.955-18.344,22.746
		C453.902,227.359,454.751,225.739,455.123,224.036z"/>
	<path class="st47" d="M351.546,313.019c-1.339-1.759-2.591-3.201-3.601-4.797c-0.76-1.202-2.847-2.609-1.785-3.735
		c1.724-1.828,4.333-2.791,6.831-3.499c0.746-0.211,0.612,0.789,0.58,1.299C353.349,305.81,352.922,309.298,351.546,313.019z"/>
	<path class="st48" d="M343.214,342.579c-4.722,1.259-7.487,3.738-7.626,8.473c-2.37-2.044-2.883-4.845-1.419-7.111
		C336.061,341.01,338.991,340.451,343.214,342.579z"/>
	<path class="st49" d="M347.811,351.353c-1.785,1.187-3.582,0.734-5.356-0.004c-1.307-0.543-2.585-1.158-3.875-1.742
		c0.157-2.503,2.063-3.275,3.999-3.905c1.145-0.372,1.977,0.067,2.429,1.333C345.594,348.674,346.718,350.015,347.811,351.353z"/>
	<path class="st50" d="M436.043,143.924c0.39,0.713,1.13,1.328,0.602,2.289c-1.105,2.007-1.005,4.356-1.812,6.448
		c-2.038-0.033-3.661,1.073-5.986,2.275C431.156,150.746,432.917,146.915,436.043,143.924z"/>
	<path class="st51" d="M508.597,256.64c1.387,3.986,1.387,3.986,7.041,4.13c-2.415,1.06-5.093,1.611-6.923,3.779
		c-1.202,1.423-1.489-0.174-1.61-0.724C506.538,261.242,506.461,258.691,508.597,256.64z"/>
	<path class="st52" d="M356.27,249.3c-0.617,1.664-1.614,2.893-1.757,4.502c-0.124,1.395-1.472,1.578-2.423,1.537
		c-1.224-0.053-0.879-1.302-0.884-2.093C351.187,250.283,352.947,248.872,356.27,249.3z"/>
	<path class="st53" d="M416.129,214.262c1.019,0.02,1.774,0.051,1.92,0.883c0.121,0.685-0.515,1.098-1.038,1.211
		c-2.247,0.485-4.514,0.886-6.781,1.272c-0.606,0.103-1.249-0.168-1.33-0.781c-0.039-0.295,0.503-0.793,0.889-0.997
		C411.869,214.751,414.163,214.491,416.129,214.262z"/>
	<path class="st54" d="M502.799,282.223c0.364-1.136,0.727-2.271,1.091-3.407c0.629,0.207,1.329,0.304,1.871,0.648
		c0.771,0.489,2.515,0.027,2.143,1.653c-0.312,1.36-1.57,1.852-2.933,1.686C504.234,282.713,503.522,282.423,502.799,282.223z"/>
	<path class="st55" d="M431.133,156.519c-0.752,0.817-1.505,1.633-2.337,2.537c0.999,1.099,2.317-0.004,3.428,0.808
		c-0.686,0.568-1.278,1.184-1.983,1.613c-1.348,0.821-2.157-0.399-2.946-1.072c-0.943-0.804,0.203-1.347,0.629-1.804
		c0.838-0.899,1.833-1.651,2.764-2.464C430.836,156.264,430.984,156.391,431.133,156.519z"/>
	<path class="st56" d="M343.908,334.49c-0.328,1.545-0.606,2.723-0.82,3.913c-0.121,0.674-0.116,1.505-1.117,1.111
		c-0.683-0.269-1.917-0.256-1.458-1.606C341.041,336.359,341.695,334.905,343.908,334.49z"/>
	<path class="st57" d="M380.282,196.322c1.134,0.509,1.547,1.509,1.526,2.577c-0.015,0.748-0.476,1.587-1.44,1.477
		c-1.464-0.166-1.411-1.355-1.351-2.425C379.062,197.154,379.36,196.469,380.282,196.322z"/>
	<path class="st6" d="M194.476,478.079c4.943-0.406,9.515-2.328,14.24-3.586c24.919-6.637,50.102-11.997,75.574-15.992
		c44.561-6.989,89.386-9.543,134.44-7.577c39.458,1.722,78.509,6.835,117.14,15.049c16.603,3.53,33.065,7.667,49.374,12.393
		c0.365,0.106,0.751,0.138,1.127,0.204c0.209,1.048,1.725,1.95,0.601,3.116c-1.004,1.042-2.192,0.175-3.261-0.14
		c-11.098-3.272-22.321-6.052-33.56-8.797c-13.192-3.222-26.527-5.709-39.848-8.257c-9.431-1.804-18.968-3.085-28.486-4.393
		c-9.325-1.282-18.67-2.457-28.036-3.38c-5.547-0.546-11.129-0.78-16.692-1.253c-20.116-1.709-40.284-1.925-60.458-1.768
		c-1.116,0.009-2.344-0.395-3.316,0.563c-10.523-0.322-21.022,0.47-31.48,1.278c-15.793,1.22-31.57,2.709-47.27,5.002
		c-20.561,3.003-41.005,6.649-61.215,11.396c-12.36,2.903-24.824,5.58-36.849,9.816c-1.206,0.425-2.554,0.92-3.423-0.386
		C191.996,479.746,193.573,478.998,194.476,478.079z"/>
	<path class="st58" d="M413.487,458.889c-3.184,1.252-6.592,1.261-9.906,1.574c-11.963,1.13-23.902,0.695-35.784-1.119
		c-0.262-0.04-0.496-0.265-0.742-0.404c4.021-0.201,8.04-0.401,12.06-0.602c3.876-0.014,7.751-0.028,11.627-0.042
		c2.626-1.825,5.606-0.882,8.428-0.998c2.058-0.085,4.281-0.529,6.083,1.076c2.105,0.236,4.206,0.531,6.333,0.312
		c0.436-0.232,0.857-0.219,1.259,0.081C413.058,458.808,413.273,458.849,413.487,458.889z"/>
	<path class="st5" d="M405.251,458.375c-4.837-0.026-9.674-0.052-14.511-0.078c-0.671-3.48,2.246-3.293,3.992-3.304
		c3.138-0.021,6.286,0.632,9.42,1.072C405.562,456.262,405.154,457.473,405.251,458.375z"/>
	<path class="st5" d="M433.667,457.808c-5.402-0.39-10.32,0.747-15.284-0.981C420.686,454.676,430.435,455.162,433.667,457.808z"/>
	<path class="st5" d="M412.844,458.767c-0.42-0.027-0.839-0.054-1.259-0.081c-0.249-0.288-0.525-0.556-0.741-0.867
		c-0.401-0.576-1.505-0.918-1-1.807c0.497-0.876,1.517-0.615,2.351-0.474c1.206,0.204,2.4,0.481,3.717,0.751
		C415.584,458.014,413.882,457.998,412.844,458.767z"/>
	<path class="st59" d="M366.139,426.044c3.208-9.469,6.341-18.671,9.442-27.884c1.574-4.676,2.796-5.284,7.789-5.668
		c6.767-0.521,9.097,2.279,11.847,8.332c2.343,5.157,3.843,10.697,5.729,16.063c0.093,0.263,0.322,0.478,0.493,0.722
		c-0.336-9.303,2.421-17.135,10.903-21.997c5.197-2.979,10.623-3.197,16.091-0.538c2.549,1.239,4.245,3.297,5.652,5.657
		c0.956,1.604,1.677,2.04,3.318,0.36c4.666-4.777,10.363-6.956,17.102-5.571c3.755,0.771,6.834,2.58,8.759,6.05
		c0.66,1.19,1.514,2.235,2.714,3.214c3.172-3.549,6.998-6.086,11.779-6.741c5.781-0.792,10.715,1.01,14.519,5.483
		c2.815,3.31,5.563,6.695,7.071,11.4c1.588-2.57,2.979-4.782,4.901-6.59c8.554-8.045,19.304-7.04,26.218,2.417
		c2.463,3.369,4.724,6.809,5.665,11.408c0.823-3.363,1.477-6.263,2.25-9.132c0.888-3.295,3.347-4.403,6.796-4.358
		c6.04,0.08,7.935,4.643,10.356,8.739c0.672,1.136,1.072,2.434,1.899,4.362c0.512-1.876,0.787-3.126,1.194-4.331
		c0.911-2.695,2.782-4.199,5.675-3.963c3.727,0.304,6.614,1.375,9.103,4.972c2.511,3.629,2.238,6.66,1.251,10.243
		c-2.282,8.281-4.574,16.559-6.818,24.851c-0.695,2.57-2.145,4.488-4.827,4.754c-3.181,0.316-6.455,0.246-8.792-2.529
		c-2.428-2.882-4.572-5.946-5.124-9.973c-0.786,0.912-0.752,1.817-0.86,2.666c-0.348,2.743-1.6,4.839-4.423,5.439
		c-3.155,0.67-6.601,0.418-8.574-2.11c-2.044-2.618-5.485-5.002-4.04-9.459c-3.583,3.886-7.637,6.41-12.786,6.94
		c-4.686,0.482-8.855-0.674-12.238-3.989c-3.491-3.421-6.978-6.892-8.272-11.998c-11.59,15.044-20.692,15.13-33.834,0.266
		c0.052,3.695-2.283,5.392-5.051,6.654c-6.241,2.845-13.521,1.339-18.936-3.952c-1.706-1.666-3.227-3.521-4.895-5.358
		c-0.423,5.025-4.146,8.331-9.714,8.857c-5.988,0.566-11.035-1.361-15.188-5.649c-1.659-1.713-3.197-3.545-4.985-5.54
		c0,0.629-0.065,0.925,0.01,1.179c0.788,2.672,1.495,5.408-1.132,7.461c-2.956,2.31-6.407,1.693-9.73,1.09
		c-0.718-0.13-1.398-1.011-1.9-1.69c-1.58-2.139-7.32-3.62-9.746-2.401c-0.312,0.157-0.552,0.503-0.764,0.805
		c-3.959,5.655-10.327,5.508-14.241-0.52c-1.327,1.954-2.834,3.685-5.113,4.37c-2.686,0.806-5.138,0.61-7.02-1.864
		c-1.328-1.746-2.776-3.401-4.24-5.181c-0.106,0.147-0.291,0.286-0.282,0.411c0.537,7.462-3.929,8.016-9.463,7.854
		c-1.841-0.054-2.948-1.359-4.298-2.547c-5.761-5.07-3.74-11.97-4.518-18.144c-0.749-5.942-0.873-11.964-1.24-17.952
		c-0.308-5.032,1.046-6.744,5.999-7.152c4.701-0.387,9.397-1.372,14.142-0.526c4.373,0.78,7.942,2.886,10.536,6.556
		c0.669,0.946,1.36,1.88,2.088,2.782c4.426,5.485,4.95,12.241,0.911,17.981C363.867,423.108,364.313,424.256,366.139,426.044z"/>
	<path class="st60" d="M277.938,407.163c0.851-5.944,1.587-6.586,7.877-7.656c4.299-0.732,8.571-1.578,12.929-0.489
		c0.747,0.187,1.493,0.378,2.233,0.588c9.071,2.574,20.372,17.464,16.079,29.873c-3.168,9.154-9.622,13.624-18.824,14.857
		c-0.479,0.064-0.968,0.054-1.445,0.13c-4.4,0.696-8.951,1.994-11.994-4.143c-0.416,5.204-3.295,6.438-6.909,6.972
		c-4.775,0.705-9.587,1.328-14.266,2.469c-3.602,0.878-6.228,0.147-8.323-2.842c-0.319-0.455-0.831-0.775-1.421-1.308
		c-0.698,3.257-2.269,5.651-5.14,7.094c-2.615,1.314-4.978,1.189-7.186-0.886c-1.754-1.649-3.599-3.199-5.446-4.83
		c-0.095,0.253-0.219,0.41-0.192,0.534c1.484,6.937-0.845,9.911-7.951,10.249c-2.005,0.095-3.337-0.866-4.848-2.07
		c-3.707-2.953-4.634-7.055-5.62-11.319c-1.805-7.805-3.863-15.551-5.814-23.321c-1.22-4.856-0.061-6.804,4.774-8.033
		c3.459-0.879,6.89-1.89,10.382-2.61c6.73-1.387,12.442,0.463,16.818,5.877c1.51,1.869,3.267,3.544,4.757,5.59
		c-0.619-3.313-1.261-6.622-1.849-9.94c-0.667-3.759,0.539-5.756,4.281-6.509c6.151-1.238,12.341-2.288,18.519-3.388
		c2.755-0.49,4.939,0.401,6.433,2.839C276.334,405.776,276.86,406.699,277.938,407.163z"/>
	<path class="st61" d="M416.822,313.417c-1.083,0.571-2.166,1.142-3.289,1.733c3.607-7.189,19.787-14.036,30.616-11.759
		c-1.376,0.379-2.418,0.666-3.46,0.953c-0.668,0.888-1.716,0.788-2.633,0.978c-6.191,1.28-12.002,3.533-17.481,6.684
		C419.415,312.672,418.209,313.31,416.822,313.417z"/>
	<path class="st62" d="M416.822,313.417c7.317-4.708,14.973-8.522,23.867-9.073c0.293,0.728,0.723,1.436-0.597,1.658
		c-7.165,1.205-13.684,4.23-20.244,7.169C418.993,313.554,417.931,314.793,416.822,313.417z"/>
	<path class="st63" d="M415.638,239.754c-0.749,3.484-3.173,5.292-6.224,6.426c-4.151,1.542-8.618,0.936-11.572-1.662
		C404.728,245.993,410.562,244.449,415.638,239.754z"/>
	<path class="st64" d="M436.364,196.376c-0.842,0.912-1.608,1.398-3.005,0.851c-5.52-2.162-11.379-0.355-15.116,4.481
		c-0.971,1.256-1.949,2.507-3.125,4.02c-0.515-3.406,2.353-8.075,6.383-10.827C426.731,191.329,431.639,192.275,436.364,196.376z"/>
	<path class="st65" d="M416.679,195.849c1.809-6.193,7.623-9.376,12.019-6.733C423.262,188.451,419.943,191.662,416.679,195.849z"/>
	<path class="st66" d="M344.744,180.043c0.057,0.746,1.318,0.922,0.841,2.086c-2.444-0.722-3.98-2.612-5.54-4.353
		c-5.83-6.509-9.129-14.017-8.574-22.928c0.217-3.481,1.506-4.359,4.95-3.63c1.543,0.327,2.906,0.982,4.202,1.845
		c5.14,3.422,9.264,7.845,12.627,12.985c0.674,1.03,1.053,2.259,1.516,3.417c0.182,0.455,0.161,0.981-0.232,1.35
		c-0.569,0.534-1.086,0.11-1.542-0.207c-1.77-1.23-3.311-2.824-5.596-3.314c0.297,0.337,0.643,0.643,0.882,1.017
		c0.549,0.862,2.068,1.417,1.66,2.468c-0.428,1.102-1.92,0.13-2.911,0.627c0.211,0.16,0.424,0.314,0.63,0.477
		c1.131,0.892,4.014,0.68,3.372,2.316c-0.774,1.971-2.405,4.146-5.084,4.549c1.385-3.015,0.618-5.098-2.452-6.569
		c-1.157-0.554-1.751-1.983-0.34-3.078c1.116-0.866,0.702-1.511,0.1-2.392c-0.901-1.317-0.516-2.353,0.92-3.015
		c2.032-0.168,2.032-0.168,3.992,0.727c-3.09-3.11-5.794-6.362-9.316-8.729c-1.405-0.944-2.789-2.144-4.719-1.541
		c-0.753,0.813-0.606,1.821-0.509,2.754c0.793,7.606,3.3,14.442,8.961,19.865C343.531,177.677,344.727,178.49,344.744,180.043z"/>
	<path class="st10" d="M344.245,164.163c-0.92,0.6-1.487,1.264-0.462,2.27c0.749,0.735,1.479,1.49,2.334,2.353
		c-0.638,0.12-1.111,0.172-1.561,0.303c-0.722,0.211-1.751,0.27-1.779,1.168c-0.016,0.498,0.747,1.032,1.186,1.526
		c0.189,0.213,0.429,0.393,0.674,0.541c1.361,0.827,2.731,1.639,4.097,2.457c-0.929,1.322-1.858,2.645-2.787,3.967
		c-0.401,0.432-0.802,0.863-1.203,1.295c-7.43-6.148-11.391-14.059-11.922-23.675c-0.063-1.142-0.595-2.571,0.993-3.272
		c3.264,2.202,6.29,4.689,8.924,7.624C343.601,161.682,344.804,162.553,344.245,164.163z"/>
	<path class="st67" d="M397.084,178.282c-3.92-2.621-7.188-6.084-11.204-8.596c-6.367-3.982-13.846-2.779-18.648,3.042
		c-1.223,1.483-2.67,2.769-4.349,3.756c-0.241-0.215-1.633,0.501-0.704-0.586c3.365-3.939,5.898-9.106,12.256-8.983
		c0.281,0.005,0.777-0.004,0.813-0.119c1.11-3.562,3.732-1.632,5.434-1.17c6.862,1.862,11.931,6.491,16.605,11.599
		C397.665,177.639,397.778,178.051,397.084,178.282z"/>
	<path class="st68" d="M441.831,181.118c-3.243-1.674-4.711-5.253-7.733-7.199c-1.202-0.774-2.257-1.713-3.609-2.329
		c-0.955-0.436-3.575,0.295-2.426-2.445c0.04-0.096-0.864-0.661-1.377-0.906c-6.935-3.321-10.199-1.713-15.237,4.205
		c-1.098,1.29-1.54,3.12-3.222,3.931c0.868-4.931,4.023-8.43,8.164-10.444c3.836-1.866,7.961-1.014,11.733,1.496
		c4.76,3.168,8.803,7.053,12.609,11.252C441.384,179.399,442.222,179.959,441.831,181.118z"/>
	<path class="st69" d="M361.733,179.925c-3.17,4.503-4.82,9.954-8.718,14.003c-0.56-0.27-1.476-0.352-0.73-1.33
		c2.497-3.275,4.194-7.034,6.368-10.501C359.335,181.008,360.089,179.764,361.733,179.925z"/>
	<path class="st70" d="M349.582,200.885c-1.387,2.783-2.474,5.777-5.299,7.548C345.055,205.218,346.456,202.444,349.582,200.885z"/>
	<path class="st71" d="M359.263,253.104c4.139-2.284,12.641,0.203,17.842,5.083C371.094,255.552,365.693,253.461,359.263,253.104z"
		/>
	<path class="st72" d="M421.613,265.299c5.188-0.749,9.653-2.964,13.686-6.388C434.771,263.021,426.901,266.749,421.613,265.299z"/>
	<path class="st73" d="M570.254,417.837c1.001,1.231,1.082,2.558,0.66,4.07c-2.591,9.29-5.1,18.602-7.701,27.889
		c-0.81,2.891-2.228,3.606-5.199,3.072c-3.379-0.607-5.784-1.975-6.6-5.785c-0.762-3.559-2.214-6.975-3.44-10.427
		c-0.307-0.864-0.325-1.954-1.483-2.522c-1.225,2.972-1.655,6.13-2.475,9.178c-0.507,1.884-0.33,4.464-2.782,4.969
		c-2.758,0.569-5.603,0.405-7.587-2.197c0.661-5.758,2.408-11.281,3.71-16.898c0.954-4.118,2.047-8.207,3.074-12.31
		c1.184-4.729,3.011-5.769,7.774-4.642c0.859,0.203,1.578,0.722,2.411,0.971c2.341,4.827,3.409,10.122,5.526,15.032
		c0.339,0.788,0.674,1.577,1.011,2.366c1.587-0.091,1.29-1.551,1.528-2.403c0.645-2.313,1.223-4.648,1.951-6.939
		c1.319-4.152,3.15-5.148,7.408-4.074C568.786,417.375,569.529,417.574,570.254,417.837z"/>
	<path class="st74" d="M356.057,397.732c7.14,3.56,9.32,12.914,4.227,19.149c-1.485,1.818-1.468,3.045-0.146,4.693
		c0.903,1.126,1.692,2.346,2.503,3.545c1.863,2.755,1.283,5.79-1.457,7.722c-2.701,1.905-5.333,1.39-7.374-1.482
		c-1.563-2.2-3.086-4.429-4.622-6.649c-0.511-0.739-1.035-1.443-2.102-1.087c-1.064,0.355-1.092,1.209-1,2.117
		c0.107,1.055,0.22,2.11,0.315,3.166c0.195,2.164,0.408,4.352-2.206,5.342c-3.39,1.284-6.51,0.487-8.087-2.036
		c-0.413-6.607-1.04-13.201-1.34-19.811c-0.131-2.887-0.428-5.749-0.641-8.623c0.009-0.966-0.044-1.934,0.025-2.897
		c0.152-2.113,1.292-3.589,3.367-3.712c4.783-0.284,9.544-1.284,14.375-0.547C353.332,396.842,354.717,397.18,356.057,397.732z"/>
	<path class="st75" d="M487.58,402.629c6.361,3.982,8.265,10.23,8.017,17.142c-0.23,6.421-2.892,11.961-8.162,15.95
		c-4.601,3.483-9.733,4.292-14.99,1.991c-5.435-2.379-8.434-6.817-9.131-12.752c-1.189-9.148,2.747-18.609,11.504-22.513
		C479.115,400.532,483.355,400.492,487.58,402.629z"/>
	<path class="st76" d="M524.314,407.965c4.115,1.718,5.522,5.5,6.699,9.261c2.575,8.233-1.381,19.02-8.536,23.879
		c-10.03,6.813-21.736,0.837-23.069-11.776c0.447-3.018,0.226-6.103,1.215-9.077c2.474-7.441,7.365-12.286,15.009-14.104
		C518.713,405.415,521.704,405.999,524.314,407.965z"/>
	<path class="st77" d="M389.308,396.125c1.451,1.531,1.856,3.574,2.534,5.448c2.976,8.23,5.86,16.493,8.755,24.752
		c1.329,3.793,0.859,5.513-1.717,6.602c-3.53,1.493-7.321,0.349-8.543-2.809c-0.483-1.248-1.083-1.643-2.284-1.61
		c-1.831,0.05-3.667,0.104-5.494,0.019c-2.398-0.112-4.187,0.045-5.403,2.871c-1.455,3.381-7.351,2.621-9.498-0.964
		c3.341-9.949,6.709-19.888,10.165-29.798C379.607,395.516,383.25,394.125,389.308,396.125z"/>
	<path class="st78" d="M427.913,423.374c4.053,4.582,3.19,8.279-2.413,10.341c-7.955,2.928-16.172-1.06-20.141-9.809
		c-0.474-1.044-0.768-2.17-1.146-3.258c0.149-3.418-0.406-6.814,0.57-10.261c2.249-7.944,8.53-13.393,16.716-13.996
		c2.514-0.185,4.905,0.24,6.984,1.807c2.68,1.223,3.399,2.954,2.404,5.781c-1.214,3.448-3.484,4.876-6.519,4.103
		c-4.02-1.024-6.212-0.383-8.108,2.369c-1.907,2.769-1.956,6.508-0.184,9.266c0.759,1.181,1.887,1.901,2.985,2.679
		c1.39,1.396,3.061,1.128,4.759,0.843C425.184,423.009,426.578,422.469,427.913,423.374z"/>
	<path class="st79" d="M457.416,425.783c3.363,4.772,2.254,8.102-3.268,9.81c-9.63,2.979-20.101-4.553-20.455-14.714
		c-0.425-7.091,1.452-13.224,6.896-18.169c5.422-4.926,12.137-6.003,18.625-2.575c2.617,2.436,2.925,3.991,1.349,6.81
		c-1.555,2.782-3.489,3.695-6.163,2.912c-4.252-1.246-7.064-0.291-8.861,3.008c-2.054,3.773-1.338,7.742,1.884,10.434
		c0.293,0.244,0.599,0.473,0.898,0.708c1.439,1.375,3.135,1.655,5.009,1.176C454.775,424.814,456.161,424.857,457.416,425.783z"/>
	<path class="st80" d="M460.898,426.889c-0.765-1.083-1.495-2.194-2.303-3.244c-1.308-1.7-3.024-2.319-5.097-1.663
		c-1.391,0.44-2.881,1.09-3.99-0.276c-1.049-1.292-0.286-2.803,0.206-4.109c1-2.654,3.45-3.728,6.343-2.923
		c1.545,0.43,3.006,1.337,5.14,0.439C460.055,419.253,460.346,423.033,460.898,426.889z"/>
	<path class="st81" d="M431.429,413.418c-0.747,3.906-0.508,7.413,0.28,10.975c-0.491-0.661-0.979-1.325-1.473-1.983
		c-1.68-2.235-3.771-3.187-6.548-2.186c-1.275,0.46-2.77,0.97-3.738-0.279c-0.88-1.135-0.39-2.629,0.08-3.883
		c1.065-2.844,3.666-4.087,6.53-2.954C428.059,413.702,429.464,413.976,431.429,413.418z"/>
	<path class="st82" d="M389.308,396.125c-2.025,0.085-4.05,0.171-6.075,0.255c-2.177,0.091-3.45,1.11-4.173,3.276
		c-2.996,8.971-6.106,17.904-9.263,26.819c-0.494,1.394-0.614,3.085-2.14,3.959c-0.394-1.168-0.079-2.238,0.306-3.367
		c3.192-9.38,6.306-18.786,9.501-28.165C379.114,394.052,385.295,392.636,389.308,396.125z"/>
	<path class="st83" d="M550.616,413.206c-1.706-0.172-3.409-0.4-5.12-0.502c-2.059-0.123-3.368,0.564-3.919,2.88
		c-2.167,9.109-4.528,18.171-6.811,27.252c-0.281,1.116-0.426,2.275-1.118,3.248c-0.619-0.855-0.578-1.752-0.34-2.752
		c2.299-9.655,4.549-19.321,6.841-28.977c0.386-1.626,0.955-3.458,2.864-3.583C545.775,410.592,548.635,410.679,550.616,413.206z"/>
	<path class="st84" d="M459.214,400.135c-12.903-4.974-23.926,5.201-24.981,17.036c-0.111,1.242-0.357,2.472-0.54,3.708
		c-1.74-7.53,0.7-13.901,5.941-19.118c4.397-4.376,9.905-5.677,15.955-3.818C456.951,398.363,458.285,398.944,459.214,400.135z"/>
	<path class="st85" d="M487.58,402.629c-12.277-3.888-23.096,5.371-24.133,19.157c-0.079,1.055-0.09,2.116-0.133,3.174
		c-3.076-10.762,5.084-26.213,18.097-24.823C483.662,400.378,485.939,400.771,487.58,402.629z"/>
	<path class="st86" d="M524.314,407.965c-8.523-3.369-17.999,1.154-22.146,10.47c-1.554,3.49-1.929,7.239-2.76,10.892
		c-1.016-7.788,1.1-14.543,6.826-19.989c4.74-4.509,11.579-5.541,16.821-2.692C523.585,406.935,524.419,407.03,524.314,407.965z"/>
	<path class="st87" d="M428.483,398.198c-11.143-4.546-24.049,4.284-24.035,19.611c0.001,0.95,0.299,1.929-0.236,2.838
		c-1.64-6.564-0.481-12.646,3.351-18.166c4.172-6.012,11.966-8.616,18.358-6.193C426.893,396.655,428.257,396.73,428.483,398.198z"
		/>
	<path class="st88" d="M570.254,417.837c-1.148,0.724-2.236-0.009-3.341-0.155c-3.579-0.476-4.422,0.012-5.418,3.464
		c-0.904,3.132-1.696,6.297-2.588,9.432c-0.163,0.574-0.245,1.481-1.208,1.255c-0.548-0.128-0.447-0.777-0.545-1.23
		c0.925-3.416,1.844-6.834,2.777-10.249C561.489,414.651,565.874,413.585,570.254,417.837z"/>
	<path class="st89" d="M356.057,397.732c-6.02-1.136-12.021-0.204-18.018,0.223c-2.791,0.199-3.536,1.519-3.675,5.691
		c-0.086,0.278-0.219,0.317-0.406,0.08c-0.04-0.385-0.09-0.769-0.118-1.155c-0.418-5.731,0.027-6.207,5.902-6.488
		c3.089-0.148,6.173-0.406,9.264-0.501C351.57,395.504,353.972,396.143,356.057,397.732z"/>
	<path class="st90" d="M333.957,403.727c0.13-0.054,0.265-0.081,0.406-0.08c0.936,9.5,1.712,19.011,1.744,28.566
		c-1.082-2.274-0.59-4.745-0.786-7.112C334.733,417.987,334.394,410.853,333.957,403.727z"/>
	<path class="st91" d="M457.416,425.783c-1.612,0.1-3.223,0.243-4.836,0.289c-1.754,0.05-3.463-0.089-4.258-2.065
		c1.862,0.504,3.699,0.853,5.617,0.117C455.587,423.492,456.668,424.362,457.416,425.783z"/>
	<path class="st92" d="M427.913,423.374c-1.866,0.247-3.727,0.592-5.601,0.708c-1.328,0.082-2.68-0.137-3.25-1.686
		c1.806,0.703,3.614,0.495,5.323-0.225C426.008,421.487,427.158,421.729,427.913,423.374z"/>
	<path class="st93" d="M236.383,413.497c7.339,2.983,10.276,10.426,6.568,17.615c-1.25,2.424-0.876,3.803,0.986,5.348
		c1.037,0.86,1.949,1.878,2.884,2.856c2.253,2.356,2.248,5.106,0.011,7.35c-2.31,2.317-4.941,2.446-7.402,0.211
		c-2.002-1.819-3.89-3.764-5.803-5.679c-0.734-0.735-1.478-1.294-2.535-0.69c-0.987,0.564-0.71,1.52-0.574,2.342
		c0.172,1.043,0.471,2.069,0.773,3.085c0.693,2.33,0.761,4.363-1.923,5.58c-3.761,1.706-6.286,1.362-8.094-1.261
		c-2.184-10.227-5.062-20.286-7.339-30.492c-0.145-1.696,0.671-2.875,2.205-3.332C222.74,414.465,229.248,411.773,236.383,413.497z"
		/>
	<path class="st94" d="M305.094,404.293c6.291,4.511,9.152,12.267,7.365,19.961c-1.895,8.157-6.935,12.958-15.12,14.318
		c-2.758,0.458-5.535,0.8-8.308,1.161c-1.795,0.233-3.24-0.302-4.05-2.053c-1.325-8.842-2.397-17.719-3.657-26.572
		c0.048-1.452-0.198-2.881-0.326-4.319c-0.186-2.092,0.861-3.361,2.783-3.789c4.887-1.089,9.801-1.791,14.847-1.087
		C300.995,402.243,303.012,403.305,305.094,404.293z"/>
	<path class="st78" d="M277.698,432.276c1.449,1.321,1.832,3.136,2.077,4.929c0.315,2.302-0.574,4.008-3.038,4.425
		c-6.332,1.071-12.67,2.114-19.017,3.089c-1.184,0.182-2.286-0.259-2.841-1.502c-2.049-10.399-3.964-20.824-5.793-31.264
		c-0.061-1.814,0.961-3.177,2.507-3.506c7.036-1.5,14.029-3.356,21.297-3.433c3.574,4.346,2.301,8.253-3.023,9.277
		c-1.791,0.345-3.575,0.746-5.378,1.009c-4.315,0.629-4.545,1.04-2.59,5.022c2.409,1.082,4.66-0.257,6.97-0.522
		c1.033-0.118,2.046-0.467,3.115-0.372c3.347,4.219,2.263,7.252-2.907,8.155c-0.753,0.132-1.491,0.354-2.246,0.475
		c-4.215,0.674-4.527,1.344-2.498,5.441c2.78,1.161,5.333-0.46,7.995-0.707C274.116,432.626,275.863,432.02,277.698,432.276z"/>
	<path class="st95" d="M305.094,404.293c-6.309-2.842-12.763-2.034-19.244-0.794c-4.318,0.826-4.485,1.007-4.263,5.474
		c0.038,0.769,0.091,1.538,0.137,2.307c0.054,0.478-0.146,0.663-0.617,0.535c-0.223-2.108-0.461-4.214-0.662-6.323
		c-0.16-1.677,0.607-2.997,2.195-3.28c5.479-0.975,10.968-2.363,16.574-0.832C301.354,401.964,303.429,402.725,305.094,404.293z"/>
	<path class="st96" d="M272.89,405.013c-5.998,1.142-11.996,2.279-17.993,3.427c-2.238,0.428-4.707,0.508-5.387,3.409
		c-0.307,0.319-0.61,0.318-0.911-0.008c-0.747-2.833,0.634-4.165,3.255-4.614c5.879-1.008,11.758-2.015,17.638-3.017
		C270.733,403.998,272.003,403.702,272.89,405.013z"/>
	<path class="st97" d="M274.766,419.467c2.101-0.835,3.517-1.738,4.747-3.568c0.802,6.045,1.539,11.601,2.356,17.752
		c-2.056-1.804-3.362-2.974-2.932-5.682C279.459,424.676,277.92,421.794,274.766,419.467z"/>
	<path class="st98" d="M236.383,413.497c-6.918-0.615-13.254,2.026-19.782,3.576c-1.451,0.344-2.272,1.384-2.356,2.926
		c-0.187,0.263-0.366,0.259-0.538-0.014c-0.891-2.676,0.017-4.255,2.809-4.836c5.424-1.129,10.599-3.659,16.37-2.815
		C234.137,412.517,235.338,412.746,236.383,413.497z"/>
	<path class="st99" d="M249.926,429.805c0.754,3.976,1.433,7.557,2.137,11.27C247.297,438.241,247.027,436.874,249.926,429.805z"/>
	<path class="st100" d="M248.599,411.841c0.304,0.002,0.608,0.004,0.911,0.007c1.703,9.499,3.414,18.995,5.099,28.496
		c0.167,0.943,0.183,1.914,0.269,2.872c-1.759-3.727-1.798-7.84-2.595-11.779C250.966,424.924,249.818,418.375,248.599,411.841z"/>
	<path class="st101" d="M213.708,419.984c0.18-0.002,0.359,0.003,0.538,0.014c2.446,9.824,4.895,19.646,7.317,29.475
		c0.055,0.222-0.186,0.517-0.288,0.779c-2.363-9.244-4.731-18.487-7.083-27.734C213.98,421.687,213.867,420.83,213.708,419.984z"/>
	<path class="st102" d="M277.698,432.276c-3.777,1.411-7.776,1.779-11.7,2.502c-1.077,0.199-1.676-0.115-1.665-1.28
		c3.013-0.589,6.012-1.267,9.044-1.728C274.806,431.553,276.415,430.821,277.698,432.276z"/>
	<path class="st103" d="M281.107,411.814c0.205-0.18,0.41-0.359,0.616-0.537c1.294,8.776,2.551,17.554,3.258,26.401
		c-1.683-5.641-1.805-11.541-2.825-17.294C281.655,417.555,281.448,414.673,281.107,411.814z"/>
	<path class="st104" d="M271.983,419.428c-2.585,1.449-5.523,1.531-8.326,2.125c-0.915,0.194-1.787,0.056-1.759-1.231
		c2.599-0.491,5.193-1.014,7.8-1.456C270.493,418.732,271.422,418.438,271.983,419.428z"/>
	<path class="st105" d="M344.245,164.163c-2.08-3.801-5.545-6.251-8.764-8.927c-0.738-0.614-1.653-0.997-1.666-2.139
		c2.214-0.651,3.807,0.72,5.392,1.812c3.995,2.754,7.243,6.294,10.495,10.398C347.603,165.044,346.048,163.896,344.245,164.163z"/>
	<path class="st106" d="M346.472,414.878c-1.941-2.647-0.827-5.746-1.155-8.619c-0.141-1.234,1.526-1.215,2.515-1.227
		c2.716-0.035,4.153,1.481,5.111,5.182C353.04,414.332,350.401,416.235,346.472,414.878z"/>
	<path class="st107" d="M346.472,414.878c3.186-0.126,5.864-0.958,6.472-4.665c1.438,1.794,0.701,3.396-0.61,4.757
		c-1.411,1.466-3.247,1.916-5.228,1.362C346.451,416.148,346.516,415.44,346.472,414.878z"/>
	<path class="st108" d="M477.209,426.658c-5.232-2.575-3.854-10.535-0.418-13.342c2.099-1.715,4.859-1.148,6.473,1.163
		c0.855,1.224,0.932,2.701,1.502,4.011c0.416,3.086,0.001,5.922-2.683,7.918C480.566,427.536,478.914,428.194,477.209,426.658z"/>
	<path class="st109" d="M477.209,426.658c3.845,0.283,5.906-1.127,6.903-4.803c0.298-1.099,0.44-2.241,0.653-3.364
		c1.164,2.828,0.871,5.499-1.058,7.873C481.799,428.712,479.02,428.788,477.209,426.658z"/>
	<path class="st110" d="M513.419,431.753c-4.43-3.102-4.183-11.004,0.43-13.718c3.224-1.897,5.963-0.067,7.09,4.738
		c0.651,2.459,0.195,4.741-1.146,6.858C518.248,432.071,516.304,432.703,513.419,431.753z"/>
	<path class="st111" d="M513.419,431.753c5.033-0.215,7.053-2.627,7.519-8.978c1.437,3.743,0.652,7.518-2.182,9.583
		C516.898,433.712,514.926,434.341,513.419,431.753z"/>
	<path class="st112" d="M383.16,419.94c-1.614-0.017-2.559-0.409-1.793-2.37c0.727-1.86,1.194-3.822,1.763-5.743
		c0.164-0.552,0.277-1.19,1.019-1.128c0.543,0.045,0.725,0.565,0.849,1.035c0.675,2.568,2.123,4.915,2.194,7.656
		C386.062,421.145,384.636,420.73,383.16,419.94z"/>
	<path class="st113" d="M383.16,419.94c1.343-0.196,2.768,0.218,4.033-0.55c0.383,0.614,1.166,1.562-0.058,1.723
		C385.789,421.29,383.906,422.205,383.16,419.94z"/>
	<path class="st114" d="M228.3,431.588c-1.109-2.147-1.381-4.544-2.075-6.812c-0.552-1.807,0.067-2.345,1.669-2.749
		c3.139-0.792,4.859,0.122,6.358,3.627C234.847,429.891,232.39,432.341,228.3,431.588z"/>
	<path class="st115" d="M228.3,431.588c4.818-1.239,5.517-1.935,5.953-5.932c1.361,1.569,1.12,3.237,0.072,4.775
		c-1.078,1.582-2.647,2.497-4.631,2.504C228.815,432.938,228.176,432.647,228.3,431.588z"/>
	<path class="st116" d="M294.78,427.81c-1.688-4.561-1.426-9.42-2.136-14.131c-0.215-1.426,0.904-1.707,2.032-1.825
		c2.75-0.288,5.664,1.613,6.945,4.638c0.408,0.964,0.61,2.016,0.906,3.027C303.36,425.328,299.959,428.968,294.78,427.81z"/>
	<path class="st117" d="M294.78,427.81c5.894-1.093,7.055-2.335,7.747-8.291c2.055,5.01-1.113,9.722-6.417,9.512
		C295.396,429.002,294.442,429.065,294.78,427.81z"/>
	<path class="st118" d="M478.388,423.01c0.032-2.372,1.956-5.429,3.179-5.225c0.863,0.144,0.966,0.885,0.854,1.558
		c-0.345,2.076-0.576,4.386-2.908,5.179C478.207,424.966,478.512,423.544,478.388,423.01z"/>
	<path class="st119" d="M518.587,424.6c-0.183,0.568-0.322,1.35-0.676,2.018c-0.63,1.186-1.025,3.361-2.685,2.635
		c-1.292-0.564-0.277-2.43,0.218-3.641c0.286-0.699,0.759-1.343,1.249-1.927c0.347-0.413,0.743-1.024,1.413-0.784
		C518.838,423.165,518.463,423.88,518.587,424.6z"/>
	<path class="st120" d="M298.72,424.543c-0.976-1.797-0.807-3.635-1.014-5.399c-0.087-0.739-0.438-1.651,0.828-1.683
		c0.878-0.022,1.479,0.448,1.621,1.34C300.468,420.761,300.462,422.666,298.72,424.543z"/>
</g>
<g>
</g>
<g>
</g>
<g>
</g>
<g>
</g>
<g>
</g>
<g>
</g>
</svg>
